<?xml version="1.0" standalone="no"?>
<!DOCTYPE svg PUBLIC "-//W3C//DTD SVG 20010904//EN"
 "http://www.w3.org/TR/2001/REC-SVG-20010904/DTD/svg10.dtd">
<svg version="1.0" xmlns="http://www.w3.org/2000/svg"
 width="382.000000pt" height="382.000000pt" viewBox="0 0 382.000000 382.000000"
 preserveAspectRatio="xMidYMid meet">
<metadata>
Created by potrace 1.11, written by Peter Selinger 2001-2013
</metadata>
<g transform="translate(0.000000,382.000000) scale(0.100000,-0.100000)"
fill="#000000" stroke="none">
<path d="M1828 3713 l-3 -78 -80 -7 c-44 -4 -90 -10 -102 -13 -23 -5 -31 10
-49 103 -4 18 -8 32 -11 32 -28 0 -213 -55 -213 -64 0 -6 7 -35 15 -65 8 -30
12 -58 9 -62 -2 -4 -28 -15 -57 -25 -28 -9 -69 -25 -89 -35 -21 -11 -42 -19
-47 -19 -6 0 -25 27 -43 60 -18 33 -37 60 -41 60 -9 0 -143 -73 -171 -93 -19
-14 -19 -16 12 -70 18 -31 32 -61 32 -66 0 -5 -30 -31 -67 -57 -38 -27 -84
-63 -104 -81 l-35 -32 -60 53 -59 53 -78 -72 -78 -73 60 -57 61 -58 -52 -66
c-28 -36 -55 -70 -59 -75 -5 -5 -35 7 -70 28 -34 20 -63 35 -64 34 -2 -2 -28
-45 -59 -96 l-56 -92 43 -26 c23 -14 52 -32 64 -40 l22 -14 -40 -84 c-21 -46
-39 -89 -39 -95 0 -15 -13 -14 -93 10 -38 11 -73 17 -77 12 -8 -8 -60 -183
-60 -200 0 -5 31 -17 68 -27 96 -25 96 -25 84 -82 -6 -27 -14 -82 -18 -121
l-7 -73 -88 0 -89 0 0 -110 0 -110 88 0 88 0 12 -102 c9 -80 9 -103 0 -109 -7
-5 -43 -15 -81 -25 -54 -13 -67 -20 -62 -32 3 -8 15 -54 27 -101 11 -47 24
-89 27 -93 4 -4 40 2 80 13 40 11 75 18 78 15 3 -3 23 -48 43 -100 l38 -95
-22 -14 c-11 -8 -39 -24 -61 -35 -71 -38 -71 -31 -15 -128 29 -49 55 -92 58
-96 4 -4 38 11 75 32 38 22 72 40 75 40 4 0 31 -33 59 -73 29 -39 64 -86 78
-102 l24 -31 -61 -68 -61 -68 76 -76 76 -76 63 69 64 68 70 -53 c38 -30 71
-55 74 -57 2 -2 -1 -12 -6 -21 -6 -9 -25 -42 -43 -74 l-32 -56 96 -57 c53 -31
98 -55 99 -53 1 2 20 34 42 71 26 47 44 67 54 63 8 -2 51 -20 95 -40 89 -40
86 -30 54 -140 -12 -38 -17 -72 -12 -76 9 -9 203 -64 207 -58 2 2 13 41 26 88
13 47 24 86 25 88 1 1 25 -3 54 -9 28 -6 81 -14 118 -17 l68 -7 3 -92 3 -93
109 0 110 0 0 89 0 90 43 6 c23 3 69 7 102 8 l60 2 20 -77 c11 -43 24 -78 30
-78 18 1 196 48 202 54 4 3 -3 41 -15 83 -12 42 -20 78 -19 79 7 5 186 74 194
74 5 0 27 -31 49 -70 21 -38 43 -70 48 -70 12 0 186 100 186 107 0 3 -18 38
-41 77 l-41 71 24 15 c12 8 60 43 106 78 l83 63 67 -60 67 -60 75 74 75 75
-64 64 -64 64 54 70 c30 39 57 71 61 71 4 1 34 -15 67 -34 32 -19 63 -35 68
-35 7 0 113 172 113 184 0 3 -28 21 -62 42 -35 20 -64 37 -65 38 -2 2 16 45
39 97 23 52 43 95 43 96 1 2 39 -8 84 -21 l82 -24 9 22 c4 12 18 59 30 105 26
96 30 91 -73 117 -60 16 -68 21 -63 39 3 11 11 56 17 100 19 138 8 125 99 125
l80 0 0 115 0 115 -79 0 -78 0 -7 63 c-4 34 -9 76 -12 94 -6 30 -4 32 38 43
23 6 57 16 74 21 l31 10 -26 104 c-28 117 -24 113 -111 90 -30 -8 -56 -12 -59
-10 -2 3 -19 42 -36 87 -18 46 -35 91 -39 100 -6 13 3 22 41 42 94 48 92 39
31 149 l-54 96 -63 -36 c-34 -19 -65 -32 -69 -29 -3 4 -40 52 -83 109 l-77
102 53 55 54 55 -76 79 -77 79 -53 -57 -53 -57 -68 52 c-37 29 -71 56 -76 60
-8 7 4 31 51 105 13 21 10 24 -79 75 -51 30 -95 55 -99 57 -4 2 -21 -22 -38
-53 -17 -30 -35 -55 -40 -55 -7 0 -181 78 -189 85 -2 2 5 35 16 74 11 39 17
73 14 75 -11 7 -185 56 -198 56 -6 0 -20 -29 -29 -65 -10 -36 -21 -68 -25 -70
-4 -2 -61 4 -128 13 l-122 17 0 78 0 77 -110 0 -109 0 -3 -77z m237 -698 c43
-8 114 -26 159 -39 180 -54 223 -52 283 18 31 35 35 36 98 36 36 0 65 -4 65
-10 0 -5 -36 -147 -80 -315 -44 -168 -80 -308 -80 -310 0 -3 -29 -5 -64 -5
l-64 0 -4 123 c-4 141 -19 181 -89 240 -100 86 -222 121 -419 122 -133 0 -152
-2 -225 -28 -198 -67 -318 -199 -388 -423 -38 -120 -50 -236 -44 -409 8 -223
60 -386 171 -532 120 -158 266 -225 496 -225 150 0 257 21 355 67 118 57 109
34 101 266 -9 242 -21 294 -76 321 -20 10 -79 23 -133 30 l-97 12 0 58 0 58
355 0 355 0 0 -59 0 -59 -44 -11 c-48 -12 -58 -21 -74 -70 -7 -19 -23 -269
-37 -575 -14 -297 -28 -565 -31 -594 l-5 -52 -85 0 -84 0 -1 48 c-1 86 -25
471 -29 476 -3 2 -44 -9 -92 -25 -190 -64 -477 -76 -667 -29 -321 79 -570 329
-663 667 -19 68 -22 104 -22 273 0 170 3 205 22 275 72 262 247 481 477 598
65 32 204 75 280 86 99 14 297 12 380 -4z"/>
</g>
</svg>
