<?xml version="1.0" encoding="UTF-8" standalone="no"?>
<!--Created with Vectornator Pro for iOS (http://vectornator.io/)-->
<!DOCTYPE svg PUBLIC "-//W3C//DTD SVG 1.1//EN" "http://www.w3.org/Graphics/SVG/1.1/DTD/svg11.dtd">
<svg xmlns="http://www.w3.org/2000/svg" xmlns:vectornator="http://vectornator.io" xmlns:xlink="http://www.w3.org/1999/xlink" width="100%" height="100%" style="fill-rule:evenodd;clip-rule:evenodd;stroke-linecap:round;stroke-linejoin:round" version="1.1" viewBox="0 0 3000 1900" xml:space="preserve">
    <metadata>
        <vectornator:setting key="RulersVisible" value="1"/>
        <vectornator:setting key="OutlineMode" value="0"/>
        <vectornator:setting key="SnapToEdges" value="0"/>
        <vectornator:setting key="Units" value="Pixels"/>
        <vectornator:setting key="DynamicGuides" value="0"/>
        <vectornator:setting key="SnapToPoints" value="0"/>
        <vectornator:setting key="CMYKEnabledKey" value="0"/>
        <vectornator:setting key="SnapToGrid" value="0"/>
        <vectornator:setting key="IsolateActiveLayer" value="0"/>
        <vectornator:setting key="ShowGrid" value="1"/>
        <vectornator:setting key="GridSpacing" value="36"/>
    </metadata>
    <defs/>
    <g id="Zierde" vectornator:layerName="Zierde">
        <path fill="#FFFFFF" d="M1617.57+1385.95L1615.53+1248.61C1615.53+1248.61+1692.33+1407.92+1882.1+1474.77C2111.47+1555.56+2247.04+1528.63+2247.04+1528.63C2247.04+1528.63+2075.54+1590.54+1877.38+1537.05C1702.35+1489.81+1617.57+1385.95+1617.57+1385.95Z" opacity="1"/>
        <path fill="#FFFFFF" d="M1371.44+1171.01C1346.87+1171.01+1321.97+1182.54+1321.97+1182.54C1321.97+1182.54+1319.58+1202.96+1321.78+1224.35C1323.99+1245.74+1324.5+1246.63+1330.78+1268.1C1337.06+1289.57+1346.91+1310.22+1346.91+1310.22L1394.59+1310.6C1394.59+1310.6+1403.09+1291.9+1408.78+1271.13C1414.47+1250.36+1414.47+1249.65+1417.34+1227.51C1420.22+1205.36+1420.25+1182.54+1420.25+1182.54C1420.25+1182.54+1396.01+1171.01+1371.44+1171.01ZM1369.47+1200.32C1380.03+1200.27+1391.13+1204.97+1391.13+1204.97C1391.13+1204.97+1392.03+1216.18+1390.06+1226.13C1388.1+1236.08+1383.28+1244.82+1383.28+1244.82L1357.88+1244.82C1357.88+1244.82+1351.93+1235.41+1349.69+1225.51C1347.45+1215.6+1348.91+1205.16+1348.91+1205.16C1348.91+1205.16+1358.91+1200.36+1369.47+1200.32Z" opacity="1"/>
        <path fill="#FFFFFF" d="M2284.44+372.225C2272.99+372.054+2261.34+372.409+2249.59+373.443C2235.53+374.682+2221.72+376.853+2208.28+379.6C2229.03+381.081+2297.55+388.624+2382.66+429.443C2461.29+467.16+2510.75+502.662+2510.75+502.662L2499.91+518.256C2499.91+518.256+2442.07+479.258+2368.06+445.1C2314.21+420.245+2258.1+400.624+2183.38+399.912C2146.82+399.564+2120.66+407.37+2106.91+412.756C2100.1+415.78+2093.48+418.812+2087.78+421.6C2087.42+421.777+2087.08+421.955+2086.72+422.131C2065.24+432.697+2052.34+440.756+2052.34+440.756C2052.34+440.756+2206.96+405.986+2354.81+490.193C2521.43+585.085+2561.72+716.6+2561.72+716.6L2563.03+517.537L2601+486.1C2601+486.1+2533.34+437.188+2455.47+408.475C2434.74+400.829+2364.58+373.419+2284.44+372.225Z" opacity="1"/>
        <path fill="#FFFFFF" d="M662.752+1509.81L724.965+1587.6C724.965+1587.6+627.615+1614.98+540.979+1614.65C449.143+1614.29+403.419+1599.76+360.101+1570.33C323.399+1545.4+319.519+1524.63+319.519+1507.71C319.519+1494.19+333.239+1478.18+345.634+1478.18C361.175+1478.18+369.883+1487.35+370.193+1498.69C370.457+1508.31+358.691+1512.22+358.691+1512.22C358.691+1512.22+365.269+1505.42+365.219+1499.63C365.172+1494.05+360.09+1488.75+347.344+1489.21C343.335+1489.36+333.509+1493.82+333.509+1510.66C333.509+1533.36+362.043+1553.68+384.333+1560.72C434.366+1576.52+498.811+1583.24+568.629+1559.96C617.203+1543.77+662.752+1509.81+662.752+1509.81Z" opacity="1"/>
    </g>
    <g id="S" vectornator:layerName="S">
        <path fill="#FFFFFF" d="M2639.38+511.188L2609.44+535.375L2608.81+940.438L2627.12+984.406L2627.41+1039.06C2627.41+1039.06+2656.8+1044.82+2670.5+1063.31C2684.2+1081.8+2682.19+1113+2682.19+1113L2682.09+1397.09C2682.09+1397.09+2641.43+1391.76+2609.12+1376.75C2576.82+1361.74+2552.88+1337.03+2552.88+1337.03C2552.88+1337.03+2578.79+1268.29+2594.22+1219.44C2609.65+1170.58+2609.14+1159.36+2614.81+1139.5C2619.84+1121.88+2628.15+1111.65+2643.19+1116.88C2649.49+1119.07+2651.97+1127.21+2649.22+1134.25C2645.63+1143.44+2632.84+1137+2632.84+1137C2632.84+1137+2635.83+1142.03+2640.41+1142.75C2645.37+1143.53+2649.47+1142.43+2651.38+1141.03C2656.29+1137.41+2659.06+1129.01+2659.06+1121.59C2659.07+1113.22+2656.92+1106.62+2646.56+1102.78C2638.47+1099.78+2628+1101.08+2619.97+1105.53C2608.42+1111.92+2603.09+1129.41+2603.09+1129.41C2603.09+1129.41+2566.08+1227.74+2484.44+1338.31C2408.85+1440.68+2270.75+1518.88+2270.75+1518.88C2270.75+1518.88+2429.56+1459.15+2546.5+1466.16C2647.74+1472.22+2742.91+1517+2742.91+1517L2776.03+1488.06L2775.75+1076.41L2754.38+1033.72L2754.03+989.094C2754.03+989.094+2732.07+983.614+2719.03+969.125C2702.86+951.152+2703.75+929.5+2703.75+929.5L2703.72+637.5C2703.72+637.5+2733+641.594+2759.12+652.438C2785.25+663.281+2808.25+680.875+2808.25+680.875C2808.25+680.875+2791.21+737.43+2792.22+816.469C2793.23+895.508+2812.28+997.031+2812.28+997.031C2812.28+997.031+2832.03+850.075+2870.75+737.906C2909.47+625.738+2967.16+548.375+2967.16+548.375C2967.16+548.375+2883.9+560.046+2798.09+554.969C2715.77+550.097+2639.38+511.188+2639.38+511.188ZM2852.56+594.938C2852.56+594.938+2845.21+604.844+2839.16+616.188C2833.1+627.531+2828.34+640.312+2828.34+640.312C2828.34+640.312+2814.16+627.94+2796.59+617.188C2779.03+606.435+2758.06+597.313+2758.06+597.312C2758.06+597.312+2782.85+598.623+2806.47+598.031C2830.09+597.44+2852.56+594.937+2852.56+594.938Z" opacity="1"/>
    </g>
    <g id="O" vectornator:layerName="O">
        <animateTransform attributeName="transform" begin="0" dur="30" from="0 2096.07 981.77" repeatCount="indefinite" to="360 2096.07 981.77" type="rotate"/>
        <path fill="#FFFFFF" d="M2071.06+513.756L2071.06+552.381C2053.62+553.367+2036.48+555.458+2019.66+558.475L2010.59+523.256L1956.16+537.287L1965.09+572.006C1947.27+577.715+1929.94+584.544+1913.22+592.443L1894.75+559.506L1845.69+587.006L1864.09+619.818C1845.06+632.108+1827.04+645.81+1810.25+660.881L1780.81+633.443L1741.97+671.193L1772.34+699.537C1761.92+711.583+1752.11+724.183+1743.06+737.35L1710.88+718.381L1682.31+766.818L1714.38+785.725C1706.34+801.537+1699.21+817.886+1693.16+834.756L1651.81+822.943L1636.38+877.037L1677.75+888.85C1673.44+908.908+1670.58+929.479+1669.19+950.475L1625.28+950.475L1625.28+1006.69L1669.13+1006.69C1670.25+1024.35+1672.45+1041.71+1675.66+1058.72L1635.19+1069.35L1649.47+1123.72L1689.72+1113.16C1695.43+1130.45+1702.13+1147.3+1709.91+1163.54L1671.97+1185.04L1699.69+1233.97L1737.59+1212.47C1749.65+1230.92+1763.07+1248.43+1777.75+1264.76L1746.44+1298.6L1784.34+1337.29L1816.44+1302.57C1828.19+1312.72+1840.46+1322.29+1853.28+1331.13L1831.69+1368.16L1880.28+1396.51L1901.63+1359.91C1917.05+1367.78+1932.97+1374.84+1949.41+1380.82L1936.53+1426.72L1990.69+1441.91L2003.47+1396.41C2023.15+1400.74+2043.34+1403.69+2063.94+1405.19L2064.16+1452.66L2120.41+1452.41L2120.19+1405.72C2137.17+1404.76+2153.85+1402.71+2170.25+1399.82L2181.5+1442.51L2235.88+1428.16L2224.88+1386.51C2242.14+1381.03+2258.92+1374.44+2275.16+1366.91L2297.16+1405.57L2346.03+1377.79L2324.5+1339.91C2343.15+1328.05+2360.81+1314.78+2377.34+1300.26L2410.63+1330.94L2449.25+1292.97L2415.72+1262.07C2426.11+1250.32+2435.84+1237.98+2444.91+1225.13L2480.06+1245.6L2508.31+1196.97L2474.25+1177.16C2482.42+1161.57+2489.71+1145.44+2495.94+1128.79L2538.47+1140.66L2553.59+1086.51L2512.06+1074.91C2516.66+1054.86+2519.83+1034.28+2521.5+1013.26L2564.25+1013.01L2563.91+956.756L2522.41+957.006C2521.58+940.618+2519.75+924.512+2517.13+908.662L2554.53+899.037L2540.5+844.568L2504.31+853.912C2498.86+836.083+2492.23+818.791+2484.59+802.037L2518.28+783.162L2490.78+734.1L2457.94+752.506C2445.88+733.262+2432.34+715.062+2417.47+698.037L2444.34+669.256L2406.59+630.381L2379.38+659.568C2367.36+648.884+2354.71+638.922+2341.53+629.631L2359.41+599.318L2310.94+570.756L2293.53+600.287C2277.57+591.925+2261.07+584.454+2244+578.131L2254.81+540.287L2200.72+524.85L2190.03+562.256C2169.62+557.649+2148.68+554.515+2127.28+552.943L2127.28+513.756L2071.06+513.756ZM2037.78+645.631C2047.23+645.708+2053.19+646.287+2053.19+646.287C2053.19+646.287+2068.76+712.162+2075.22+776.256C2081.61+839.678+2062.5+901.1+2062.5+901.1C2062.5+901.1+1999.57+851.895+1958.97+802.256C1918.36+752.617+1900.13+702.537+1900.13+702.537C1900.13+702.537+1915.4+687.031+1937.34+672.756C1939.36+673.339+1941.51+674.168+1943.81+675.443C1965.64+687.552+2000.63+733.819+2000.63+733.818C2000.63+733.818+1991.58+678.049+1997.88+655.787C1998.8+652.521+2000.06+650.033+2001.53+648.068C2015.41+645.997+2028.34+645.553+2037.78+645.631ZM2152.88+647.568C2152.88+647.568+2174.66+647.23+2200.31+652.443C2201.34+654.27+2202.29+656.36+2203.03+658.881C2210.1+682.822+2202.59+740.349+2202.59+740.35C2202.59+740.35+2235.24+694.243+2255.34+682.787C2258.29+681.106+2260.95+680.22+2263.38+679.85C2286.07+696.36+2301.44+714.819+2301.44+714.818C2301.44+714.818+2266.37+772.691+2226.03+822.912C2186.11+872.607+2129.41+903.006+2129.41+903.006C2129.41+903.006+2119.05+823.775+2124.91+759.912C2130.77+696.049+2152.88+647.568+2152.88+647.568ZM1826.31+773.85C1826.31+773.85+1883.91+809.368+1933.81+850.1C1983.2+890.404+2013.16+947.35+2013.16+947.35C2013.16+947.35+1933.85+957.083+1870.03+950.725C1806.22+944.366+1757.91+921.912+1757.91+921.912C1757.91+921.912+1757.75+900.119+1763.16+874.506C1764.99+873.495+1767.1+872.543+1769.63+871.818C1793.62+864.935+1851.09+872.913+1851.09+872.912C1851.09+872.912+1805.24+839.882+1793.94+819.693C1792.28+816.731+1791.41+814.089+1791.06+811.662C1807.75+789.098+1826.31+773.849+1826.31+773.85ZM2371.06+784.85C2371.06+784.85+2386.87+799.84+2401.56+821.506C2401.02+823.528+2400.23+825.683+2399+828.006C2387.31+850.064+2341.72+885.943+2341.72+885.943C2341.72+885.943+2397.31+875.827+2419.69+881.693C2422.97+882.554+2425.51+883.763+2427.5+885.193C2432.18+912.864+2430.25+936.819+2430.25+936.818C2430.25+936.818+2364.71+953.66+2300.75+961.35C2237.46+968.959+2175.66+951.037+2175.66+951.037C2175.66+951.037+2223.68+887.152+2272.53+845.6C2321.38+804.047+2371.06+784.849+2371.06+784.85ZM2110.34+947.787L2130.31+967.693L2130.34+995.881L2110.44+1015.82L2082.25+1015.88L2062.28+995.975L2062.25+967.787L2082.16+947.818L2110.34+947.787ZM1909.59+999.693C1963.84+999.414+2010.78+1014.35+2010.78+1014.35C2010.78+1014.35+1961.18+1077+1911.28+1117.29C1861.39+1157.58+1811.19+1175.47+1811.19+1175.47C1811.19+1175.47+1795.79+1160.1+1781.66+1138.07C1782.25+1136.06+1783.09+1133.92+1784.38+1131.63C1796.62+1109.88+1843.13+1075.19+1843.13+1075.19C1843.13+1075.19+1787.29+1083.88+1765.06+1077.44C1761.8+1076.5+1759.33+1075.21+1757.38+1073.72C1753.41+1045.94+1755.94+1022.07+1755.94+1022.07C1755.94+1022.07+1821.87+1006.9+1886+1000.85C1893.93+1000.1+1901.84+999.733+1909.59+999.693ZM2268.47+1011.38C2284.88+1011.06+2301.83+1011.31+2317.81+1012.6C2381.74+1017.77+2430.44+1039.35+2430.44+1039.35C2430.44+1039.35+2431+1061.14+2426.06+1086.85C2424.25+1087.89+2422.17+1088.86+2419.66+1089.63C2395.79+1096.96+2338.19+1090.07+2338.19+1090.07C2338.19+1090.07+2384.64+1122.22+2396.31+1142.19C2398.03+1145.12+2398.95+1147.77+2399.34+1150.19C2383.08+1173.06+2364.78+1188.63+2364.78+1188.63C2364.78+1188.63+2306.56+1154.21+2255.91+1114.41C2205.78+1075.03+2174.75+1018.66+2174.75+1018.66C2174.75+1018.66+2219.25+1012.35+2268.47+1011.38ZM2058.66+1064.85C2058.66+1064.85+2069.79+1143.96+2064.56+1207.88C2059.33+1271.8+2037.72+1320.51+2037.72+1320.51C2037.72+1320.51+2015.93+1321.06+1990.22+1316.1C1989.18+1314.28+1988.21+1312.21+1987.44+1309.69C1980.13+1285.82+1987.1+1228.22+1987.09+1228.22C1987.09+1228.22+1954.89+1274.63+1934.91+1286.29C1931.97+1288+1929.33+1288.92+1926.91+1289.32C1904.05+1273.03+1888.5+1254.72+1888.5+1254.72C1888.5+1254.73+1922.97+1196.5+1962.81+1145.88C2002.24+1095.79+2058.66+1064.85+2058.66+1064.85ZM2126.72+1065.63C2126.72+1065.63+2190.79+1113.34+2232.56+1162.01C2274.33+1210.67+2293.78+1260.29+2293.78+1260.29C2293.78+1260.29+2278.85+1276.18+2257.25+1290.97C2255.23+1290.44+2253.05+1289.66+2250.72+1288.44C2228.61+1276.86+2192.53+1231.41+2192.53+1231.41C2192.53+1231.41+2202.92+1286.94+2197.16+1309.35C2196.31+1312.64+2195.11+1315.16+2193.69+1317.16C2166.04+1321.96+2142.06+1320.16+2142.06+1320.16C2142.06+1320.16+2124.91+1254.68+2116.94+1190.76C2109.05+1127.5+2126.72+1065.63+2126.72+1065.63Z" opacity="1"/>
    </g>
    <g id="R" vectornator:layerName="R">
        <path fill="#FFFFFF" d="M1523.53+334.631C1523.53+334.631+1520.05+356.797+1495.97+381.506C1468.85+409.339+1438.22+407.193+1438.22+407.193L1305.53+408.225L1304.59+536.475L1343.31+535.943L1343.84+498.85C1343.84+498.85+1387.08+489.93+1431.75+564.975C1461.45+614.865+1459.22+664.725+1459.22+664.725L1463.03+1152.26C1463.03+1152.26+1463.14+1229.93+1454.72+1284.54C1445.8+1342.37+1427.34+1370.66+1427.34+1370.66C1427.35+1370.66+1489.93+1403.07+1518.25+1455.6C1546.58+1508.13+1544.71+1518.71+1543.47+1558.66C1542.1+1602.85+1524.94+1624.77+1498.69+1623.6C1479.16+1622.73+1471.3+1611.48+1470.91+1596.82C1469.85+1557.14+1503.38+1555.54+1503.38+1555.54C1503.38+1555.54+1478.35+1553.75+1465.31+1566.54C1458.78+1572.95+1450+1582.33+1450+1606.38C1450+1638.81+1479.94+1648.06+1497.5+1648.22C1526.13+1648.5+1544.69+1637.89+1558.13+1620.66C1575.11+1598.89+1573.44+1562.47+1573.44+1562.47L1573.31+541.662C1573.31+541.662+1609.07+536.986+1644.94+571.631C1671.92+597.69+1668.84+635.693+1668.84+635.693L1668.44+698.85C1668.44+698.85+1696.04+641.605+1727.78+604.943C1759.52+568.281+1795.41+552.193+1795.41+552.193L1523.53+334.631ZM1540.06+407.287L1614.13+470.193C1614.13+470.193+1577.83+448.792+1546.09+448.131C1517.07+447.526+1503.41+462.808+1485.63+466.85C1478.97+468.361+1473.53+455.662+1473.53+455.662C1473.53+455.662+1491.98+447.818+1509.81+435.725C1527.17+423.96+1540.06+407.287+1540.06+407.287Z" opacity="1"/>
    </g>
    <g id="A" vectornator:layerName="A">
        <path fill="#FFFFFF" d="M908.032+513.1C908.032+513.1+889.236+563.139+854.376+607.068C807.111+666.629+766.22+686.912+766.22+686.912C766.22+686.912+713.448+803.148+766.345+1096.38C809.271+1334.34+941.751+1480.97+941.751+1480.97C941.751+1480.98+1042.18+1395.86+1092.03+1327.85C1141.89+1259.83+1141.16+1208.91+1141.16+1208.91L1143.31+1618.41C1143.31+1618.41+1171.51+1498.42+1234.41+1432.54C1270.35+1394.89+1314.72+1365.54+1314.72+1365.54C1314.72+1365.54+1285.78+1309.53+1269.63+1204.38C1258.46+1131.75+1257.84+1017.89+1252.97+946.818C1241.04+772.864+1264.44+663.537+1264.44+663.537L1304.59+663.662C1304.59+663.662+1328.41+663.825+1341.13+679.975C1355.99+698.859+1353.56+722.068+1353.56+722.068L1353.25+778.631C1353.25+778.631+1376.82+708.29+1378.31+656.943C1379.21+625.922+1376.83+619.141+1362.66+597.85C1348.26+576.22+1313.22+575.943+1313.22+575.943C1313.22+575.943+1266.83+575.943+1192.44+573.943C1139.15+572.51+1077.96+561.288+1046.44+554.412C973.794+538.566+908.032+513.1+908.032+513.1ZM968.907+683.881L1142.78+684.537L1142.78+1103.07C1142.78+1103.07+1144.99+1184.32+1098.47+1257.16C1057.39+1321.49+978.501+1369.79+978.501+1369.79C978.501+1369.79+901.343+1265+889.97+980.318C879.925+728.884+968.907+683.881+968.907+683.881Z" opacity="1"/>
    </g>
    <g id="‚" vectornator:layerName="‚">
        <path fill="#FFFFFF" d="M798.979+475.565C798.979+475.565+804.242+396.869+830.722+331.346C857.202+265.822+904.899+213.472+904.899+213.472C904.899+213.472+910.95+234.748+922.813+252.159C934.677+269.571+952.352+283.119+952.352+283.119C952.352+283.119+898.567+306.913+860.224+355.025C821.881+403.137+798.979+475.565+798.979+475.565Z" opacity="1"/>
    </g>
    <g id="K" vectornator:layerName="K">
        <path fill="#FFFFFF" d="M242.751+40.7246C242.751+40.7246+225.156+133.947+174.876+184.943C124.596+235.94+41.2823+240.725+41.2822+240.725C41.2822+240.725+30.2313+274.013+30.1885+306.693C30.145+339.815+34.1528+360.707+40.8447+371.912C51.2878+389.398+71.1504+383.035+76.1885+373.318C80.5421+364.922+81.7926+355.115+76.6572+351.068C69.5031+345.432+64.064+354.005+64.0635+354.006C64.0635+354.006+71.0615+349.361+74.626+353.412C78.0498+357.303+75.0165+367.489+61.4072+368.662C52.381+369.44+48.8116+356.038+48.3447+340.631C48.0185+329.869+58.4135+294.725+79.4697+294.725C98.1448+294.725+119.735+351.415+125.157+450.225C129.711+533.201+129.345+623.349+129.345+623.35L128.313+1301.91C128.313+1301.91+131.912+1403.38+101.438+1524.01C73.9608+1632.77+36.7196+1699.69+36.7197+1699.69C36.7197+1699.69+97.3829+1716.01+143.751+1754.79C190.119+1793.56+223.469+1855.47+223.47+1855.47L386.876+1679.54L362.313+1656.47L332.095+1686.32C332.095+1686.32+309.834+1653.74+287.376+1572.97C249.416+1436.46+251.938+1375.41+251.938+1375.41L249.407+940.85L777.563+1560.66C777.563+1560.66+805.413+1592.26+803.157+1637.47C801.375+1673.21+784.529+1684.98+766.157+1703.35C747.786+1721.72+728.872+1747.3+729.032+1768.88C729.231+1795.6+753.391+1819+779.063+1818.79C803.726+1818.58+822.506+1799.74+823.532+1780.76C823.971+1772.63+824.95+1751.05+807.97+1750.85C796.311+1750.71+788.376+1758.94+788.376+1758.94C788.376+1758.94+806.523+1750.9+812.813+1761.57C819.71+1773.27+810.904+1794.16+788.782+1794.51C777.741+1794.68+762.941+1792.28+763.345+1767.04C763.827+1736.9+820.525+1683.7+902.563+1656.91C981.752+1631.06+1082.25+1631.13+1082.25+1631.13L1082.13+1415.79C1082.13+1415.79+1037.25+1465.3+993.001+1499.13C948.752+1532.96+905.126+1551.1+905.126+1551.1L248.313+751.506L248.313+751.443C288.179+711.46+405.306+594.577+488.782+518.225C502.607+505.579+564.343+446.213+636.782+444.162C689.612+442.666+707.064+476.006+707.063+476.006L738.845+476.256C738.845+476.256+740.149+403.651+766.813+321.037C790.632+247.239+848.126+185.975+848.126+185.975C848.126+185.975+799.158+217.904+747.532+234.381C724.037+241.879+646.626+238.85+646.626+238.85C646.626+238.85+564.51+321.209+456.188+421.475C370.47+500.818+286.304+575.232+247.595+609.35L248.157+419.225C248.157+419.225+244.637+346.625+264.188+279.537C279.624+226.573+311.626+188.568+311.626+188.568C311.626+188.568+289.695+176.482+266.501+140.412C244.447+106.115+242.751+40.7245+242.751+40.7246ZM233.188+172.35C233.188+172.35+236.388+177.372+240.22+182.225C244.051+187.077+248.532+191.756+248.532+191.756C248.532+191.756+235.555+205.971+226.001+228.256C216.448+250.541+213.595+281.537+213.595+281.537C213.595+281.537+199.896+245.578+205.407+219.443C210.918+193.309+233.188+172.35+233.188+172.35ZM674.407+298.412L721.751+298.412C721.751+298.412+710.919+321.258+704.907+345.85C698.896+370.441+697.689+396.787+697.688+396.787C697.688+396.787+685.854+377.978+650.876+375.131C624.227+372.962+591.47+384.505+591.47+384.506L674.407+298.412ZM192.72+1475.47C192.72+1475.47+200.56+1540.56+218.001+1598.91C235.442+1657.27+262.501+1708.91+262.501+1708.91L230.126+1740.79C230.126+1740.79+209.061+1714.66+184.626+1696.22C160.191+1677.78+132.407+1667.04+132.407+1667.04C132.407+1667.04+152.542+1624.42+167.626+1576.54C182.711+1528.65+192.72+1475.47+192.72+1475.47ZM1040.97+1526.54L1041.13+1586.44C1041.13+1586.44+1017.71+1584.61+990.938+1587.04C964.167+1589.46+934.032+1596.13+934.032+1596.13C934.032+1596.13+969.673+1579.19+996.407+1561.79C1023.14+1544.39+1040.97+1526.54+1040.97+1526.54Z" opacity="1"/>
    </g>
</svg>