<?xml version="1.0" encoding="UTF-8"?>
<!DOCTYPE svg  PUBLIC '-//W3C//DTD SVG 1.1//EN'  'http://www.w3.org/Graphics/SVG/1.1/DTD/svg11.dtd'>
<svg clip-rule="evenodd" fill-rule="evenodd" stroke-linecap="round" stroke-linejoin="round" version="1.1" width="100%" height="100%" viewBox="0 0 3e3 1900" xml:space="preserve" xmlns="http://www.w3.org/2000/svg" xmlns:vectornator="http://vectornator.io">
    <g fill="#fff" vectornator:layerName="Zierde">
        <path d="m1617.6 1386-2.04-137.34s76.8 159.31 266.57 226.16c229.37 80.79 364.94 53.86 364.94 53.86s-171.5 61.91-369.66 8.42c-175.03-47.24-259.81-151.1-259.81-151.1z"/>
        <path d="m1371.4 1171c-24.57 0-49.47 11.53-49.47 11.53s-2.39 20.42-0.19 41.81c2.21 21.39 2.72 22.28 9 43.75s16.13 42.12 16.13 42.12l47.68 0.38s8.5-18.7 14.19-39.47 5.69-21.48 8.56-43.62c2.88-22.15 2.91-44.97 2.91-44.97s-24.24-11.53-48.81-11.53zm-1.97 29.31c10.56-0.05 21.66 4.65 21.66 4.65s0.9 11.21-1.07 21.16c-1.96 9.95-6.78 18.69-6.78 18.69h-25.4s-5.95-9.41-8.19-19.31c-2.24-9.91-0.78-20.35-0.78-20.35s10-4.8 20.56-4.84z"/>
        <path d="m2284.4 372.22c-11.45-0.171-23.1 0.184-34.85 1.218-14.06 1.239-27.87 3.41-41.31 6.157 20.75 1.481 89.27 9.024 174.38 49.843 78.63 37.717 128.09 73.219 128.09 73.219l-10.84 15.594s-57.84-38.998-131.85-73.156c-53.85-24.855-109.96-44.476-184.68-45.188-36.56-0.348-62.72 7.458-76.47 12.844-6.81 3.024-13.43 6.056-19.13 8.844-0.36 0.177-0.7 0.355-1.06 0.531-21.48 10.566-34.38 18.625-34.38 18.625s154.62-34.77 302.47 49.437c166.62 94.892 206.91 226.41 206.91 226.41l1.31-199.06 37.97-31.437s-67.66-48.912-145.53-77.625c-20.73-7.646-90.89-35.056-171.03-36.25z"/>
        <path d="m662.75 1509.8 62.213 77.79s-97.35 27.38-183.99 27.05c-91.836-0.36-137.56-14.89-180.88-44.32-36.702-24.93-40.582-45.7-40.582-62.62 0-13.52 13.72-29.53 26.115-29.53 15.541 0 24.249 9.17 24.559 20.51 0.264 9.62-11.502 13.53-11.502 13.53s6.578-6.8 6.528-12.59c-0.047-5.58-5.129-10.88-17.875-10.42-4.009 0.15-13.835 4.61-13.835 21.45 0 22.7 28.534 43.02 50.824 50.06 50.033 15.8 114.48 22.52 184.3-0.76 48.574-16.19 94.123-50.15 94.123-50.15z"/>
    </g>
    <g vectornator:layerName="S">
        <path d="m2639.4 511.19-29.94 24.187-0.63 405.06 18.31 43.968 0.29 54.654s29.39 5.76 43.09 24.25 11.69 49.69 11.69 49.69l-0.1 284.09s-40.66-5.33-72.97-20.34c-32.3-15.01-56.24-39.72-56.24-39.72s25.91-68.74 41.34-117.59c15.43-48.86 14.92-60.08 20.59-79.94 5.03-17.62 13.34-27.85 28.38-22.62 6.3 2.19 8.78 10.33 6.03 17.37-3.59 9.19-16.38 2.75-16.38 2.75s2.99 5.03 7.57 5.75c4.96 0.78 9.06-0.32 10.97-1.72 4.91-3.62 7.68-12.02 7.68-19.44 0.01-8.37-2.14-14.97-12.5-18.81-8.09-3-18.56-1.7-26.59 2.75-11.55 6.39-16.88 23.88-16.88 23.88s-37.01 98.33-118.65 208.9c-75.59 102.37-213.69 180.57-213.69 180.57s158.81-59.73 275.75-52.72c101.24 6.06 196.41 50.84 196.41 50.84l33.12-28.94-0.28-411.65-21.37-42.69-0.35-44.626s-21.96-5.48-35-19.969c-16.17-17.973-15.28-39.625-15.28-39.625l-0.03-292s29.28 4.094 55.4 14.938c26.13 10.843 49.13 28.437 49.13 28.437s-17.04 56.555-16.03 135.59 20.06 180.56 20.06 180.56 19.75-146.96 58.47-259.12c38.72-112.17 96.41-189.53 96.41-189.53s-83.26 11.671-169.07 6.594c-82.32-4.872-158.71-43.781-158.71-43.781zm213.18 83.75s-7.35 9.906-13.4 21.25c-6.06 11.343-10.82 24.124-10.82 24.124s-14.18-12.372-31.75-23.124c-17.56-10.753-38.53-19.875-38.53-19.876 0 0 24.79 1.311 48.41 0.719 23.62-0.591 46.09-3.094 46.09-3.093z" fill="#fff"/>
    </g>
    <g vectornator:layerName="O">
        <animateTransform attributeName="transform" begin="0" dur="30" from="0 2096.07 981.77" repeatCount="indefinite" to="360 2096.07 981.77" type="rotate"/>
        <path d="m2071.1 513.76v38.625c-17.44 0.986-34.58 3.077-51.4 6.094l-9.07-35.219-54.43 14.031 8.93 34.719c-17.82 5.709-35.15 12.538-51.87 20.437l-18.47-32.937-49.06 27.5 18.4 32.812c-19.03 12.29-37.05 25.992-53.84 41.063l-29.44-27.438-38.84 37.75 30.37 28.344c-10.42 12.046-20.23 24.646-29.28 37.813l-32.18-18.969-28.57 48.437 32.07 18.907c-8.04 15.812-15.17 32.161-21.22 49.031l-41.35-11.813-15.43 54.094 41.37 11.813c-4.31 20.058-7.17 40.629-8.56 61.625h-43.91v56.215h43.85c1.12 17.66 3.32 35.02 6.53 52.03l-40.47 10.63 14.28 54.37 40.25-10.56c5.71 17.29 12.41 34.14 20.19 50.38l-37.94 21.5 27.72 48.93 37.9-21.5c12.06 18.45 25.48 35.96 40.16 52.29l-31.31 33.84 37.9 38.69 32.1-34.72c11.75 10.15 24.02 19.72 36.84 28.56l-21.59 37.03 48.59 28.35 21.35-36.6c15.42 7.87 31.34 14.93 47.78 20.91l-12.88 45.9 54.16 15.19 12.78-45.5c19.68 4.33 39.87 7.28 60.47 8.78l0.22 47.47 56.25-0.25-0.22-46.69c16.98-0.96 33.66-3.01 50.06-5.9l11.25 42.69 54.38-14.35-11-41.65c17.26-5.48 34.04-12.07 50.28-19.6l22 38.66 48.87-27.78-21.53-37.88c18.65-11.86 36.31-25.13 52.84-39.65l33.29 30.68 38.62-37.97-33.53-30.9c10.39-11.75 20.12-24.09 29.19-36.94l35.15 20.47 28.25-48.63-34.06-19.81c8.17-15.59 15.46-31.72 21.69-48.37l42.53 11.87 15.12-54.15-41.53-11.6c4.6-20.05 7.77-40.63 9.44-61.65l42.75-0.25-0.34-56.254-41.5 0.25c-0.83-16.388-2.66-32.494-5.28-48.344l37.4-9.625-14.03-54.469-36.19 9.344c-5.45-17.829-12.08-35.121-19.72-51.875l33.69-18.875-27.5-49.062-32.84 18.406c-12.06-19.244-25.6-37.444-40.47-54.469l26.87-28.781-37.75-38.875-27.21 29.187c-12.02-10.684-24.67-20.646-37.85-29.937l17.88-30.313-48.47-28.562-17.41 29.531c-15.96-8.362-32.46-15.833-49.53-22.156l10.81-37.844-54.09-15.437-10.69 37.406c-20.41-4.607-41.35-7.741-62.75-9.313v-39.187h-56.22zm-33.28 131.88c9.45 0.077 15.41 0.656 15.41 0.656s15.57 65.875 22.03 129.97c6.39 63.422-12.72 124.84-12.72 124.84s-62.93-49.205-103.53-98.844c-40.61-49.639-58.84-99.719-58.84-99.719s15.27-15.506 37.21-29.781c2.02 0.583 4.17 1.412 6.47 2.687 21.83 12.109 56.82 58.376 56.82 58.375 0 0-9.05-55.769-2.75-78.031 0.92-3.266 2.18-5.754 3.65-7.719 13.88-2.071 26.81-2.515 36.25-2.437zm115.1 1.937s21.78-0.338 47.43 4.875c1.03 1.827 1.98 3.917 2.72 6.438 7.07 23.941-0.44 81.468-0.44 81.469 0 0 32.65-46.107 52.75-57.563 2.95-1.681 5.61-2.567 8.04-2.937 22.69 16.51 38.06 34.969 38.06 34.968 0 0-35.07 57.873-75.41 108.09-39.92 49.695-96.62 80.094-96.62 80.094s-10.36-79.231-4.5-143.09 27.97-112.34 27.97-112.34zm-326.57 126.28s57.6 35.518 107.5 76.25c49.39 40.304 79.35 97.25 79.35 97.25s-79.31 9.733-143.13 3.375c-63.81-6.359-112.12-28.813-112.12-28.813s-0.16-21.793 5.25-47.406c1.83-1.011 3.94-1.963 6.47-2.688 23.99-6.883 81.46 1.095 81.46 1.094 0 0-45.85-33.03-57.15-53.219-1.66-2.962-2.53-5.604-2.88-8.031 16.69-22.564 35.25-37.813 35.25-37.812zm544.75 11s15.81 14.99 30.5 36.656c-0.54 2.022-1.33 4.177-2.56 6.5-11.69 22.058-57.28 57.937-57.28 57.937s55.59-10.116 77.97-4.25c3.28 0.861 5.82 2.07 7.81 3.5 4.68 27.671 2.75 51.626 2.75 51.625 0 0-65.54 16.842-129.5 24.532-63.29 7.609-125.09-10.313-125.09-10.313s48.02-63.885 96.87-105.44c48.85-41.553 98.53-60.751 98.53-60.75zm-260.72 162.94 19.97 19.906 0.03 28.188-19.9 19.939-28.19 0.06-19.97-19.905-0.03-28.188 19.91-19.969 28.18-0.031zm-200.75 51.906c54.25-0.279 101.19 14.657 101.19 14.657s-49.6 62.65-99.5 102.94c-49.89 40.29-100.09 58.18-100.09 58.18s-15.4-15.37-29.53-37.4c0.59-2.01 1.43-4.15 2.72-6.44 12.24-21.75 58.75-56.44 58.75-56.44s-55.84 8.69-78.07 2.25c-3.26-0.94-5.73-2.23-7.68-3.72-3.97-27.78-1.44-51.65-1.44-51.65s65.93-15.17 130.06-21.22c7.93-0.75 15.84-1.117 23.59-1.157zm358.88 11.687c16.41-0.32 33.36-0.07 49.34 1.22 63.93 5.17 112.63 26.75 112.63 26.75s0.56 21.79-4.38 47.5c-1.81 1.04-3.89 2.01-6.4 2.78-23.87 7.33-81.47 0.44-81.47 0.44s46.45 32.15 58.12 52.12c1.72 2.93 2.64 5.58 3.03 8-16.26 22.87-34.56 38.44-34.56 38.44s-58.22-34.42-108.87-74.22c-50.13-39.38-81.16-95.75-81.16-95.75s44.5-6.31 93.72-7.28zm-209.81 53.47s11.13 79.11 5.9 143.03-26.84 112.63-26.84 112.63-21.79 0.55-47.5-4.41c-1.04-1.82-2.01-3.89-2.78-6.41-7.31-23.87-0.34-81.47-0.35-81.47 0 0-32.2 46.41-52.18 58.07-2.94 1.71-5.58 2.63-8 3.03-22.86-16.29-38.41-34.6-38.41-34.6 0 0.01 34.47-58.22 74.31-108.84 39.43-50.09 95.85-81.03 95.85-81.03zm68.06 0.78s64.07 47.71 105.84 96.38c41.77 48.66 61.22 98.28 61.22 98.28s-14.93 15.89-36.53 30.68c-2.02-0.53-4.2-1.31-6.53-2.53-22.11-11.58-58.19-57.03-58.19-57.03s10.39 55.53 4.63 77.94c-0.85 3.29-2.05 5.81-3.47 7.81-27.65 4.8-51.63 3-51.63 3s-17.15-65.48-25.12-129.4c-7.89-63.26 9.78-125.13 9.78-125.13z" fill="#fff"/>
    </g>
    <g vectornator:layerName="R">
        <path d="m1523.5 334.63s-3.48 22.166-27.56 46.875c-27.12 27.833-57.75 25.687-57.75 25.687l-132.69 1.032-0.94 128.25 38.72-0.532 0.53-37.093s43.24-8.92 87.91 66.125c29.7 49.89 27.47 99.75 27.47 99.75l3.81 487.54s0.11 77.67-8.31 132.28c-8.92 57.83-27.38 86.12-27.38 86.12 0.01 0 62.59 32.41 90.91 84.94 28.33 52.53 26.46 63.11 25.22 103.06-1.37 44.19-18.53 66.11-44.78 64.94-19.53-0.87-27.39-12.12-27.78-26.78-1.06-39.68 32.47-41.28 32.47-41.28s-25.03-1.79-38.07 11c-6.53 6.41-15.31 15.79-15.31 39.84 0 32.43 29.94 41.68 47.5 41.84 28.63 0.28 47.19-10.33 60.63-27.56 16.98-21.77 15.31-58.19 15.31-58.19l-0.13-1020.8s35.76-4.676 71.63 29.969c26.98 26.059 23.9 64.062 23.9 64.062l-0.4 63.157s27.6-57.245 59.34-93.907 67.63-52.75 67.63-52.75l-271.88-217.56zm16.53 72.656 74.07 62.906s-36.3-21.401-68.04-22.062c-29.02-0.605-42.68 14.677-60.46 18.719-6.66 1.511-12.1-11.188-12.1-11.188s18.45-7.844 36.28-19.937c17.36-11.765 30.25-28.438 30.25-28.438z" fill="#fff"/>
    </g>
    <g vectornator:layerName="A">
        <path d="m908.03 513.1s-18.796 50.039-53.656 93.968c-47.265 59.561-88.156 79.844-88.156 79.844s-52.772 116.24 0.125 409.47c42.926 237.96 175.41 384.59 175.41 384.59 0 0.01 100.43-85.11 150.28-153.12 49.86-68.02 49.13-118.94 49.13-118.94l2.15 409.5s28.2-119.99 91.1-185.87c35.94-37.65 80.31-67 80.31-67s-28.94-56.01-45.09-161.16c-11.17-72.63-11.79-186.49-16.66-257.56-11.93-173.95 11.47-283.28 11.47-283.28l40.15 0.125s23.82 0.163 36.54 16.313c14.86 18.884 12.43 42.093 12.43 42.093l-0.31 56.563s23.57-70.341 25.06-121.69c0.9-31.021-1.48-37.802-15.65-59.093-14.4-21.63-49.44-21.907-49.44-21.907s-46.39 0-120.78-2c-53.29-1.433-114.48-12.655-146-19.531-72.646-15.846-138.41-41.312-138.41-41.312zm60.875 170.78 173.87 0.656v418.53s2.21 81.25-44.31 154.09c-41.08 64.33-119.97 112.63-119.97 112.63s-77.158-104.79-88.531-389.47c-10.045-251.43 78.937-296.44 78.937-296.44z" fill="#fff"/>
    </g>
    <g vectornator:layerName="‚">
        <path d="m798.98 475.56s5.263-78.696 31.743-144.22c26.48-65.524 74.177-117.87 74.177-117.87s6.051 21.276 17.914 38.687c11.864 17.412 29.539 30.96 29.539 30.96s-53.785 23.794-92.128 71.906-61.245 120.54-61.245 120.54z" fill="#fff"/>
    </g>
    <g vectornator:layerName="K">
        <path d="m242.75 40.725s-17.595 93.222-67.875 144.22c-50.28 50.997-133.59 55.782-133.59 55.782 0 0-11.051 33.288-11.094 65.968-0.0435 33.122 3.9643 54.014 10.656 65.219 10.443 17.486 30.306 11.123 35.344 1.406 4.3536-8.396 5.6041-18.203 0.4687-22.25-7.1541-5.636-12.593 2.937-12.594 2.938 0 0 6.998-4.645 10.562-0.594 3.4238 3.891 0.3905 14.077-13.219 15.25-9.0262 0.778-12.596-12.624-13.062-28.031-0.3262-10.762 10.069-45.906 31.125-45.906 18.675 0 40.265 56.69 45.687 155.5 4.554 82.976 4.188 173.12 4.188 173.12l-1.032 678.56s3.599 101.47-26.875 222.1c-27.477 108.76-64.718 175.68-64.718 175.68 0 0 60.663 16.32 107.03 55.1 46.368 38.77 79.718 100.68 79.719 100.68l163.41-175.93-24.563-23.07-30.218 29.85s-22.261-32.58-44.719-113.35c-37.96-136.51-35.438-197.56-35.438-197.56l-2.531-434.56 528.16 619.81s27.85 31.6 25.594 76.81c-1.782 35.74-18.628 47.51-37 65.88-18.371 18.37-37.285 43.95-37.125 65.53 0.199 26.72 24.359 50.12 50.031 49.91 24.663-0.21 43.443-19.05 44.469-38.03 0.439-8.13 1.418-29.71-15.562-29.91-11.659-0.14-19.594 8.09-19.594 8.09s18.147-8.04 24.437 2.63c6.897 11.7-1.909 32.59-24.031 32.94-11.041 0.17-25.841-2.23-25.437-27.47 0.482-30.14 57.18-83.34 139.22-110.13 79.189-25.85 179.69-25.78 179.69-25.78l-0.12-215.34s-44.88 49.51-89.129 83.34-87.875 51.97-87.875 51.97l-656.81-799.59v-0.063c39.866-39.983 156.99-156.87 240.47-233.22 13.825-12.646 75.561-72.012 148-74.063 52.83-1.496 70.282 31.844 70.281 31.844l31.782 0.25s1.304-72.605 27.968-155.22c23.819-73.798 81.313-135.06 81.313-135.06s-48.968 31.929-100.59 48.406c-23.495 7.498-100.91 4.469-100.91 4.469s-82.116 82.359-190.44 182.62c-85.718 79.343-169.88 153.76-208.59 187.88l0.562-190.12s-3.52-72.6 16.031-139.69c15.436-52.964 47.438-90.969 47.438-90.969s-21.931-12.086-45.125-48.156c-22.054-34.297-23.75-99.688-23.75-99.687zm-9.563 131.63s3.2 5.022 7.032 9.875c3.831 4.852 8.312 9.531 8.312 9.531s-12.977 14.215-22.531 36.5c-9.553 22.285-12.406 53.281-12.406 53.281s-13.699-35.959-8.188-62.094c5.511-26.134 27.781-47.093 27.781-47.093zm441.22 126.06h47.344s-10.832 22.846-16.844 47.438c-6.011 24.591-7.218 50.937-7.219 50.937 0 0-11.834-18.809-46.812-21.656-26.649-2.169-59.406 9.374-59.406 9.375l82.937-86.094zm-481.69 1177.1s7.84 65.09 25.281 123.44c17.441 58.36 44.5 110 44.5 110l-32.375 31.88s-21.065-26.13-45.5-44.57-52.219-29.18-52.219-29.18 20.135-42.62 35.219-90.5c15.085-47.89 25.094-101.07 25.094-101.07zm848.25 51.07 0.16 59.9s-23.42-1.83-50.192 0.6c-26.771 2.42-56.906 9.09-56.906 9.09s35.641-16.94 62.375-34.34c26.733-17.4 44.563-35.25 44.563-35.25z" fill="#fff"/>
    </g>
</svg>
