<?xml version="1.0" encoding="UTF-8" standalone="no"?>
<!--Created with Vectornator Pro for iOS (http://vectornator.io/)-->
<!DOCTYPE svg PUBLIC "-//W3C//DTD SVG 1.1//EN" "http://www.w3.org/Graphics/SVG/1.1/DTD/svg11.dtd">
<svg xmlns="http://www.w3.org/2000/svg" xmlns:vectornator="http://vectornator.io" xmlns:xlink="http://www.w3.org/1999/xlink" width="100%" height="100%" style="fill-rule:evenodd;clip-rule:evenodd;stroke-linecap:round;stroke-linejoin:round" version="1.1" viewBox="0 0 3000 1220" xml:space="preserve">
    <metadata>
        <vectornator:setting key="RulersVisible" value="1"/>
        <vectornator:setting key="GridSpacing" value="10"/>
        <vectornator:setting key="Units" value="Pixels"/>
        <vectornator:setting key="DynamicGuides" value="0"/>
        <vectornator:setting key="SnapToPoints" value="0"/>
        <vectornator:setting key="SnapToGrid" value="0"/>
        <vectornator:setting key="ShowGrid" value="0"/>
        <vectornator:setting key="SnapToEdges" value="0"/>
    </metadata>
    <defs/>
    <g id="Bordüre" vectornator:layerName="Bordüre">
        <path fill="#FFFFFF" d="M113.812+999.625C113.812+999.625+104.839+1015.49+90.3125+1027.72C75.786+1039.95+55.7188+1048.53+55.7188+1048.53C55.7187+1048.53+85.3314+1053.63+108.531+1064.88C131.731+1076.12+148.5+1093.5+148.5+1093.5C148.5+1093.5+167.366+1082.2+193+1075.34C222.631+1067.42+249.822+1066.92+250.875+1066.91L251.25+1066.91L899.188+1066.94C899.188+1066.94+892.849+1051.72+885+1039.72C877.151+1027.71+867.813+1018.91+867.812+1018.91L251.812+1018.91C251.532+1018.9+251.159+1018.91+250.875+1018.91C229.712+1018.39+198.637+1020.89+164.594+1016.12C130.093+1011.3+113.812+999.625+113.812+999.625ZM122.906+1023.84C138.383+1023.57+139.875+1039.37+139.875+1039.38C139.875+1039.38+135.142+1032.73+128.656+1032.5C122.236+1032.27+119.086+1035.12+119+1039.94C118.875+1046.95+123.676+1050.2+131.625+1050.19C146.201+1050.16+157.501+1029.88+174.938+1029.53C199.314+1029.04+209.469+1044.28+209.469+1044.28C209.469+1044.28+197.544+1035.79+183.406+1035.66C158.665+1035.42+151.095+1059.85+131.375+1059.59C114.026+1059.37+108.112+1048.91+107.906+1040.44C107.692+1031.63+115.258+1023.98+122.906+1023.84ZM227.407+1036.36C227.407+1036.36+203.865+1065.5+176.845+1066.17C154.87+1066.72+150.407+1055.11+150.407+1055.11C150.407+1055.11+167.396+1067.38+198.862+1054.16C213.364+1048.07+227.407+1036.36+227.407+1036.36Z" opacity="1"/>
        <path fill="#FFFFFF" d="M1163.61+1066.46L2133.72+1066.97C2133.72+1066.97+2136.56+1062.48+2136.55+1056.97C2136.53+1035.21+2112.13+1018.9+2112.13+1018.9L1192.71+1019.35C1192.71+1019.35+1192.2+1035.26+1185.43+1045.92C1178.66+1056.59+1163.61+1066.46+1163.61+1066.46Z" opacity="1"/>
    </g>
    <g id="H" vectornator:layerName="H">
        <path fill="#FFFFFF" d="M2486.88+110.094L1933.72+110.281L2360.34+161.938C2360.34+161.937+2379.38+165.11+2389.97+181.219C2398.83+194.702+2396.81+219.938+2396.81+219.938L2396.81+831.625C2396.81+831.625+2398.8+877.641+2374.22+900.969C2348.95+924.949+2328.41+926.815+2309.19+930.531C2286.66+934.887+2270.65+935.346+2255.69+951.625C2235.54+973.555+2246.06+994.469+2246.06+994.469C2246.06+994.469+2247.92+969.696+2263.97+961.281C2279.23+953.28+2306.12+953.906+2306.12+953.906L2509.44+953.938C2509.44+953.937+2440.65+794.459+2484.28+596.094C2522.49+422.398+2679.78+332.75+2679.78+332.75C2679.78+332.75+2758.85+387.121+2802.44+503.156C2819.63+548.933+2852.81+687.409+2827.22+827.156C2806.19+942.021+2727.25+990.318+2690.28+1006.38C2657.05+1020.81+2575.78+1018.03+2575.78+1018.03L2321.56+1018.97C2321.56+1018.97+2306.99+1027.53+2297.75+1039.5C2288.51+1051.47+2284.59+1066.84+2284.59+1066.84L2651.72+1066.75C2651.72+1066.75+2798.42+1075.79+2877.38+925.188C2947.22+791.96+2937.09+643.527+2892.41+490.656C2846.45+333.447+2685.88+257.969+2685.88+257.969C2685.88+257.969+2602.43+296.964+2549.06+356.531C2495.69+416.098+2472.38+496.219+2472.38+496.219C2472.37+496.219+2462.8+415.667+2477.38+311.312C2489.64+223.447+2520.28+144.594+2520.28+144.594L2486.88+110.094ZM2854.94+492.75C2862.1+493.375+2869.54+496.357+2870.5+508.375C2872.52+533.632+2850.82+533.88+2864.44+594.125C2871.11+623.652+2893.51+623.448+2901.16+660.781C2905.22+680.65+2903.71+701.952+2899.22+722.969C2896.71+720.038+2893.87+717.034+2889.97+713.219C2890.44+708.041+2890.68+702.948+2890.53+698.031C2888.79+638.776+2861.24+637.113+2851.56+599.906C2839.6+553.904+2865.99+522.399+2864.41+509.688C2863.39+501.561+2859.08+498.883+2854.25+499.156C2850.01+499.397+2845.38+503.005+2845.78+507.5C2846.54+515.991+2855.09+516.75+2855.09+516.75C2855.09+516.75+2842.43+519.305+2841.88+508C2841.48+499.972+2847.78+492.125+2854.94+492.75ZM2878.56+563.969C2884.26+563.973+2890.05+568.307+2889.81+578.562C2889.53+590.583+2884.08+599.259+2877.94+608.438C2877.9+608.376+2877.87+608.312+2877.78+608.188C2876.54+606.367+2875.84+605.374+2875.03+604.312C2875.02+604.3+2874.36+603.312+2873.84+602.531C2878.9+594.68+2882.97+587.058+2883.44+578.125C2883.81+571.036+2882.23+569.06+2878.31+569.062C2875.5+569.064+2874.09+570.492+2873.44+573C2872.79+575.508+2876.38+578.188+2876.38+578.188C2876.38+578.188+2869.19+579.295+2869.56+572.469C2869.76+568.876+2873.34+563.965+2878.56+563.969ZM2857.94+629.25C2859.87+631.05+2861.79+633.013+2863.53+635C2861.26+641.878+2859.75+649.8+2859.75+659.531C2859.75+683.305+2875.94+703.728+2884.12+713.375C2897.97+729.683+2906.49+741.626+2906.66+754.656C2906.9+773.369+2894.53+783.531+2894.53+783.531C2894.53+783.531+2900.91+768.039+2901.03+756.625C2901.17+742.875+2893.51+733.536+2879.59+717.062C2866.19+701.203+2851.97+679.25+2851.69+659.906C2851.51+647.559+2854.21+637.782+2857.94+629.25ZM2886.62+735.5C2889.39+738.902+2891.7+742.082+2893.59+745.031C2875.12+804.755+2837.44+856.5+2837.44+856.5C2837.44+856.5+2874.35+794.111+2886.62+735.5Z" opacity="1"/>
    </g>
    <g id="K" vectornator:layerName="K">
        <path fill="#FFFFFF" d="M1588.62+113.188L1705.75+158.062C1705.75+158.062+1714.27+160.824+1718.34+169.5C1722.1+177.495+1721.16+191+1721.16+191L1721.19+828.969C1721.19+828.969+1722.4+872.435+1706.97+887.406C1685.22+908.498+1629.97+907.938+1629.97+907.938L1630.12+952.875L1841.03+952.406C1841.03+952.406+1803.79+805.716+1792.84+625.344L2146.34+1008.69C2146.34+1008.69+2167.36+1032.67+2172.12+1056.81C2176.64+1079.7+2163.22+1100.44+2163.22+1100.44C2163.22+1100.44+2188.07+1107.32+2208.38+1123.66C2228.68+1139.99+2244.47+1165.78+2244.47+1165.78C2244.47+1165.78+2229.94+1116.35+2240.72+1077.5C2250.73+1041.42+2270.51+1029.48+2289.31+1010.88C2304.89+995.452+2300.73+970.866+2285.94+970.312C2274.1+969.87+2264.17+978.41+2264.06+985.969C2263.99+991.313+2265.44+991.719+2265.44+991.719C2265.44+991.719+2264.86+979.508+2281.03+979.312C2286.24+979.25+2287.89+983.171+2287.78+988.312C2287.46+1002.87+2267.77+1011.81+2244.59+1011.59C2221.78+1011.38+2194.72+976.531+2194.72+976.531L1920.5+598.062C1920.5+598.062+1919.86+588.224+1926.34+575.938C1931.87+565.457+1942.97+554.75+1942.97+554.75C1942.97+554.75+1990.32+500.538+2082.75+414.031C2150.31+350.798+2223.69+350.469+2223.69+350.469L2223.69+307.312L2090.19+307.375C2090.19+307.375+2064.85+357.173+1956.75+454.406C1859.55+541.838+1801.12+557.076+1790.03+559.312C1789.75+545.305+1789.68+531.188+1789.81+517C1792.17+264.23+1839.44+151.969+1839.44+151.969L1806.16+113.281L1588.62+113.188Z" opacity="1"/>
    </g>
    <g id="‚" vectornator:layerName="‚">
        <path fill="#FFFFFF" d="M1473.34+42.5938C1473.34+42.5938+1458.41+68.2692+1440.25+85.1875C1422.09+102.106+1400.75+110.281+1400.75+110.281L1400.88+129.719C1400.88+129.719+1424.59+171.391+1437.44+235.344C1450.28+299.297+1452.06+387.031+1452.06+387.031C1452.06+387.031+1457.01+388.56+1460.32+392.286C1463.63+396.013+1465.31+401.938+1465.31+401.938L1479.06+401.875C1479.06+401.875+1479.74+396.256+1482.69+392.144C1485.65+388.032+1491.84+386.625+1491.84+386.625C1491.84+386.625+1494.09+299.487+1507.31+235.031C1520.53+170.575+1544.94+130.094+1544.94+130.094L1544.94+110.281C1544.94+110.281+1522.64+102.512+1504.75+85.5938C1486.86+68.6754+1473.34+42.5938+1473.34+42.5938ZM1473.07+77.5851C1473.07+77.5851+1481.25+90.8669+1491.56+101.5C1501.88+112.133+1514.33+120.118+1514.33+120.118C1514.33+120.118+1508.19+127.094+1503.56+136.844C1498.94+146.594+1495.44+158.062+1495.44+158.062C1495.44+158.062+1488.9+148.695+1475.53+142.219C1470.3+139.684+1460.56+132.286+1460.81+119.625C1460.99+110.638+1468.03+103.951+1474.03+104.375C1481.8+104.925+1484.74+108.951+1484.53+115.719C1484.25+125.078+1470.19+131.594+1470.19+131.594C1470.19+131.594+1471.45+133.552+1473.3+134.989C1475.15+136.426+1477.56+137.344+1477.56+137.344C1477.56+137.344+1489.06+126.136+1489.06+114.625C1489.06+107.317+1482.58+98.6457+1472.16+98.375C1462.11+98.1141+1450.36+109.486+1450.5+122.344C1450.64+136.071+1457.49+141.019+1466.47+150.344C1473.11+157.233+1486.38+166.314+1484.62+188.375C1482.78+211.559+1474.08+244.426+1474.08+244.426C1474.08+244.426+1470.36+227.212+1466.19+208.969C1464.59+201.959+1461.36+191.271+1460.96+182.158C1460.43+169.889+1465.66+157.688+1465.66+157.688C1465.66+157.688+1463.48+154.935+1461.3+152.832C1459.11+150.729+1456.93+149.276+1456.93+149.276L1450.66+158.406C1450.66+158.406+1446.74+147.183+1442.12+137.188C1437.51+127.192+1431.82+120.118+1431.82+120.118C1431.82+120.118+1442.28+111.689+1452.59+101.056C1462.9+90.4231+1473.07+77.5851+1473.07+77.5851Z" opacity="1"/>
    </g>
    <g id="I" vectornator:layerName="I">
        <path fill="#FFFFFF" d="M1021.81+308.882L1238.23+308.775L1276.05+349.427C1276.05+349.427+1233.27+497.66+1233.48+648.897C1233.73+820.56+1280.34+954.359+1280.34+954.359L1134.31+954.374C1134.31+954.374+1112.26+952.815+1097.37+969.28C1080.47+987.977+1090.43+1011.15+1090.43+1011.15C1090.43+1011.15+1063.02+974.794+1088.32+934.357C1104.52+908.466+1122.37+908.315+1145.64+891.749C1164.94+878.01+1162.86+849.032+1162.86+849.032L1163.1+398.457C1163.1+398.457+1163.57+383.468+1155.99+372.132C1149.18+361.963+1136.52+357.366+1136.52+357.366L1021.81+308.882Z" opacity="1"/>
        <path fill="#FFFFFF" d="M1192.81+48C1192.81+48+1164.19+71.3008+1163.31+110.219C1162.8+132.743+1174.06+147.692+1185.06+147.844C1196.58+148.003+1200.93+140.95+1200.91+134.938C1200.9+132.795+1200.19+129.826+1197.75+129.875C1195.91+129.912+1194.84+131.437+1194.41+132.315C1193.99+133.194+1193.66+133.839+1192.25+134.166C1191.55+134.331+1190.67+133.651+1190.75+132.031C1190.85+129.891+1193.01+127.275+1196.88+127.344C1202.58+127.446+1206.46+133.357+1206.16+141C1205.76+150.93+1202.43+160.469+1184.09+160.469C1146.99+160.469+1153.22+96.0938+1153.22+96.0938C1153.22+96.0938+1130.74+108.024+1130.5+131.562C1130.29+151.95+1142.84+163.438+1142.84+163.438L1195.88+217.469C1195.88+217.469+1224.56+194.289+1225.59+155.375C1226.19+132.853+1215+117.851+1204+117.656C1192.48+117.452+1188.09+124.488+1188.09+130.5C1188.09+132.793+1189.1+135.805+1191.44+135.812C1193.99+135.82+1194.58+133.801+1195+133.097C1195.38+132.474+1195.43+131.767+1196.88+131.344C1197.53+131.152+1198.32+131.701+1198.25+133.406C1198.16+135.547+1196.03+138.179+1192.16+138.125C1186.45+138.045+1182.57+132.144+1182.84+124.5C1183.2+114.569+1186.44+105.04+1204.78+104.969C1241.89+104.825+1235.94+169.219+1235.94+169.219C1235.94+169.219+1258.38+157.196+1258.53+133.656C1258.66+113.268+1246.03+101.812+1246.03+101.812L1192.81+48Z" opacity="1"/>
    </g>
    <g id="R" vectornator:layerName="R">
        <path fill="#FFFFFF" d="M482.406+77.0625C437.916+77.3951+407.781+110.906+407.781+110.906C407.781+110.906+410.578+79.7386+383.438+80.5312C372.951+80.8375+369.551+87.3779+369.406+92.75C369.235+99.0985+375.031+101.719+375.031+101.719C375.031+101.719+372.525+95.7399+373.625+92.6562C375.009+88.7759+377.04+86.9513+381.594+87C387.71+87.0654+393.48+92.4846+393.406+104.438C393.32+118.407+389.656+128.531+389.656+128.531L428.469+128.375C428.469+128.375+447.227+92.1845+489.719+93.5C546.471+95.257+562.75+139.783+562.75+175.656C562.75+216.154+539.138+233.062+523.031+233.062C516.699+233.062+511.084+230.981+510.969+225.344C510.876+220.822+515.094+216.594+515.094+216.594C515.094+216.594+507.2+219.36+507.062+225.688C506.948+230.98+509.683+238.591+522.75+238.625C545.122+238.684+572.013+208.624+574.312+176.688C579.293+107.508+518.411+76.7933+482.406+77.0625ZM641.219+123.469C634.282+123.345+627.59+123.483+621.188+123.875C602.966+124.99+587.339+126.135+571.062+127.281C574.338+134.433+577.872+144.016+579.188+154.688C580.384+164.392+579.865+174.398+579.031+182.875C586.129+182.24+593.414+181.774+601.156+181.719C700.282+181.014+781.799+228.22+781.625+357.094C781.434+498.606+697.259+564.74+626.781+564.188C575.87+563.788+548.903+533.293+549.281+501.906C549.58+477.095+563.717+465.494+575.594+465.719C591.119+466.012+593.799+474.701+593.5+481.875C592.815+498.313+569.906+502.5+569.906+502.5C569.906+502.5+608.469+509.717+608.469+478.875C608.469+459.146+598.011+447.778+576.656+447.938C544.5+448.177+516.985+471.893+515.969+512.438C514.573+568.1+560.687+613.563+560.688+613.562L869.375+960.125C869.375+960.125+924.567+1017.64+941.438+1058.47C957.787+1098.04+951.219+1129.16+951.219+1129.16L978.125+1153.59C978.125+1153.59+998.853+1120.8+1035.81+1097.59C1072.77+1074.39+1101.32+1074.15+1124.19+1061.19C1152.53+1045.12+1160.59+1028.68+1161.06+1009.22C1161.37+996.666+1153.85+980.028+1136.56+979.844C1105.35+979.511+1111.19+1011.97+1111.19+1011.97C1111.19+1011.97+1110.43+995.448+1125.91+995.188C1133.06+995.067+1135.89+999.238+1135.72+1005.66C1135.44+1015.7+1125.25+1031.95+1084+1033.22C1013.61+1035.38+980.002+986.173+936.031+925.875C850.279+808.281+701.906+605.656+701.906+605.656C701.906+605.656+896.064+553.338+899.406+357.406C902.316+186.798+745.269+125.323+641.219+123.469ZM545.969+129C545.17+129.058+544.137+129.13+543.344+129.188C496.234+132.619+459.281+135.463+434.75+135.625C412.619+135.771+308.969+135.437+308.969+135.438C308.969+135.438+224.282+130.73+224.562+211.938C224.692+249.292+257.391+283.5+290.062+283C322.734+282.5+340.688+265+340.688+265C340.688+265+341.135+251.713+339.812+240.125C338.49+228.537+335.406+218.656+335.406+218.656C335.406+218.656+314.277+236.372+299.375+237.156C283.539+237.99+275.895+225.463+276.562+213.312C277.396+198.143+293.803+188.749+309.719+188.812C351.392+188.979+347.469+256.5+347.469+256.5L347.281+843.531C347.281+843.531+348.541+893.671+308.719+922.844C266.667+953.65+214.094+928.406+214.094+928.406C214.094+928.406+224.4+940.64+241.75+948.375C257.163+955.247+285.5+954.406+285.5+954.406L447.156+954.219C447.156+954.219+410.012+784.645+415.094+576.562C419.669+389.24+408.558+215.492+555.844+186.156C556.738+181.101+557.492+174.936+557.344+166.656C557.084+152.115+550.494+137.537+545.969+129ZM381.906+159.406L417.875+159.5C417.875+159.5+412.567+182.508+401.719+199.531C390.63+216.931+373.406+230.906+373.406+230.906C373.406+230.906+372.432+218.731+368.875+209.781C365.318+200.831+360.094+193.25+360.094+193.25C360.094+193.25+368.423+184.77+373.875+176.312C379.327+167.855+381.906+159.406+381.906+159.406ZM445.031+173.438C452.122+173.411+457.246+178.989+457.344+188.5C457.635+216.802+387.874+235.549+387.156+292.875C387.089+298.259+387.593+302.888+388.344+307.219C387.699+308.086+385.526+310.942+383.062+314.812C381.024+318.015+380.133+319.783+379.281+321.344C375.839+313.028+373.343+303.585+374.031+291.062C377.524+227.481+450.663+219.125+451.781+189.594C452.074+181.872+449.368+177.836+444.656+177.75C440.148+177.668+436.907+179.033+437.031+182.969C437.216+188.793+439.687+189.437+439.688+189.438C439.688+189.438+434.233+188.915+434.469+182.375C434.593+178.915+436.066+173.471+445.031+173.438ZM411.406+292.375C415.888+292.448+418.701+296.408+418.625+300.5C418.413+311.902+405.656+307.031+405.656+307.031C405.656+307.031+415.031+308.987+415.219+301.688C415.324+297.57+413.268+296.498+410.906+296.406C402.439+296.077+394.097+309.881+388.037+321.664C387.115+323.456+386.246+325.202+385.438+326.844C378.935+340.048+373.514+368.47+382.812+398.781C383.462+400.898+384.254+402.759+385+404.688L382.969+407.656C381.785+405.349+380.599+403.012+379.5+400.375C368.334+373.575+368.489+345.067+382.781+321.094C395.479+299.795+401.363+292.212+411.406+292.375ZM392.062+320.812C397.871+336.391+406.683+347.685+406.188+369.469C405.314+407.82+375.399+422.12+375.625+441.969C375.713+449.718+379.316+451.298+382.406+451.562C385.927+451.864+389.606+448.097+389.688+444.094C389.776+439.779+384.844+436.156+384.844+436.156C384.844+436.156+393.062+437.299+393.062+444.344C393.062+449.461+388.482+456.574+382.406+456.75C376.33+456.926+369.185+455.353+369.375+442.156C369.753+415.9+393.605+417.298+395.812+369.688C396.494+354.98+390.977+344.828+385.312+334.094C385.571+333.467+387.5+328.798+389.375+325.156C390.824+322.342+391.467+321.634+392.062+320.812ZM390.625+416.688C398.267+429.916+406.719+436.188+406.719+436.188C406.719+436.188+398.251+431.078+389.438+418.469L390.625+416.688Z" opacity="1"/>
    </g>
</svg>
