<?xml version="1.0" encoding="UTF-8"?>
<!DOCTYPE svg  PUBLIC '-//W3C//DTD SVG 1.1//EN'  'http://www.w3.org/Graphics/SVG/1.1/DTD/svg11.dtd'>
<svg clip-rule="evenodd" fill-rule="evenodd" stroke-linecap="round" stroke-linejoin="round" version="1.1" width="100%" height="100%" viewBox="0 0 3e3 1220" xml:space="preserve" xmlns="http://www.w3.org/2000/svg" xmlns:vectornator="http://vectornator.io">  
    <g fill="#fff" vectornator:layerName="Bordüre">
        <path d="m113.81 999.62s-8.973 15.865-23.5 28.095-34.594 20.81-34.594 20.81c-1e-4 0 29.613 5.1 52.812 16.35 23.2 11.24 39.969 28.62 39.969 28.62s18.866-11.3 44.5-18.16c29.631-7.92 56.822-8.42 57.875-8.43h0.375l647.94 0.03s-6.339-15.22-14.188-27.22c-7.849-12.01-17.187-20.81-17.188-20.81h-616c-0.28-0.01-0.653 0-0.937 0-21.163-0.52-52.238 1.98-86.281-2.79-34.501-4.82-50.782-16.495-50.782-16.495zm9.094 24.215c15.477-0.27 16.969 15.53 16.969 15.54 0 0-4.733-6.65-11.219-6.88-6.42-0.23-9.57 2.62-9.656 7.44-0.125 7.01 4.676 10.26 12.625 10.25 14.576-0.03 25.876-20.31 43.313-20.66 24.376-0.49 34.531 14.75 34.531 14.75s-11.925-8.49-26.063-8.62c-24.741-0.24-32.311 24.19-52.031 23.93-17.349-0.22-23.263-10.68-23.469-19.15-0.214-8.81 7.352-16.46 15-16.6zm104.5 12.52s-23.542 29.14-50.562 29.81c-21.975 0.55-26.438-11.06-26.438-11.06s16.989 12.27 48.455-0.95c14.502-6.09 28.545-17.8 28.545-17.8z"/>
        <path d="m1163.6 1066.5 970.11 0.51s2.84-4.49 2.83-10c-0.02-21.76-24.42-38.07-24.42-38.07l-919.42 0.45s-0.51 15.91-7.28 26.57c-6.77 10.67-21.82 20.54-21.82 20.54z"/>
    </g>
    <g vectornator:layerName="H">
        <path d="m2486.9 110.09-553.16 0.187 426.62 51.657c0-1e-3 19.04 3.172 29.63 19.281 8.86 13.483 6.84 38.719 6.84 38.719v611.69s1.99 46.016-22.59 69.344c-25.27 23.98-45.81 25.846-65.03 29.562-22.53 4.356-38.54 4.815-53.5 21.094-20.15 21.93-9.63 42.844-9.63 42.844s1.86-24.773 17.91-33.188c15.26-8.001 42.15-7.375 42.15-7.375l203.32 0.032c0-1e-3 -68.79-159.48-25.16-357.84 38.21-173.7 195.5-263.34 195.5-263.34s79.07 54.371 122.66 170.41c17.19 45.777 50.37 184.25 24.78 324-21.03 114.86-99.97 163.16-136.94 179.22-33.23 14.43-114.5 11.65-114.5 11.65l-254.22 0.94s-14.57 8.56-23.81 20.53-13.16 27.34-13.16 27.34l367.13-0.09s146.7 9.04 225.66-141.56c69.84-133.23 59.71-281.66 15.03-434.53-45.96-157.21-206.53-232.69-206.53-232.69s-83.45 38.995-136.82 98.562-76.68 139.69-76.68 139.69c-0.01 0-9.58-80.552 5-184.91 12.26-87.865 42.9-166.72 42.9-166.72l-33.4-34.5zm368.06 382.66c7.16 0.625 14.6 3.607 15.56 15.625 2.02 25.257-19.68 25.505-6.06 85.75 6.67 29.527 29.07 29.323 36.72 66.656 4.06 19.869 2.55 41.171-1.94 62.188-2.51-2.931-5.35-5.935-9.25-9.75 0.47-5.178 0.71-10.271 0.56-15.188-1.74-59.255-29.29-60.918-38.97-98.125-11.96-46.002 14.43-77.507 12.85-90.218-1.02-8.127-5.33-10.805-10.16-10.532-4.24 0.241-8.87 3.849-8.47 8.344 0.76 8.491 9.31 9.25 9.31 9.25s-12.66 2.555-13.21-8.75c-0.4-8.028 5.9-15.875 13.06-15.25zm23.62 71.219c5.7 4e-3 11.49 4.338 11.25 14.593-0.28 12.021-5.73 20.697-11.87 29.876-0.04-0.062-0.07-0.126-0.16-0.25-1.24-1.821-1.94-2.814-2.75-3.876-0.01-0.012-0.67-1-1.19-1.781 5.06-7.851 9.13-15.473 9.6-24.406 0.37-7.089-1.21-9.065-5.13-9.063-2.81 2e-3 -4.22 1.43-4.87 3.938s2.94 5.188 2.94 5.188-7.19 1.107-6.82-5.719c0.2-3.593 3.78-8.504 9-8.5zm-20.62 65.281c1.93 1.8 3.85 3.763 5.59 5.75-2.27 6.878-3.78 14.8-3.78 24.531 0 23.774 16.19 44.197 24.37 53.844 13.85 16.308 22.37 28.251 22.54 41.281 0.24 18.713-12.13 28.875-12.13 28.875s6.38-15.492 6.5-26.906c0.14-13.75-7.52-23.089-21.44-39.563-13.4-15.859-27.62-37.812-27.9-57.156-0.18-12.347 2.52-22.124 6.25-30.656zm28.68 106.25c2.77 3.402 5.08 6.582 6.97 9.531-18.47 59.724-56.15 111.47-56.15 111.47s36.91-62.389 49.18-121z" fill="#fff"/>
    </g>
    <g vectornator:layerName="K">
        <path d="m1588.6 113.19 117.13 44.874s8.52 2.762 12.59 11.438c3.76 7.995 2.82 21.5 2.82 21.5l0.03 637.97s1.21 43.466-14.22 58.437c-21.75 21.092-77 20.532-77 20.532l0.15 44.937 210.91-0.469s-37.24-146.69-48.19-327.06l353.5 383.35s21.02 23.98 25.78 48.12c4.52 22.89-8.9 43.63-8.9 43.63s24.85 6.88 45.16 23.22c20.3 16.33 36.09 42.12 36.09 42.12s-14.53-49.43-3.75-88.28c10.01-36.08 29.79-48.02 48.59-66.62 15.58-15.428 11.42-40.014-3.37-40.568-11.84-0.442-21.77 8.098-21.88 15.657-0.07 5.344 1.38 5.75 1.38 5.75s-0.58-12.211 15.59-12.407c5.21-0.062 6.86 3.859 6.75 9-0.32 14.558-20.01 23.498-43.19 23.278-22.81-0.21-49.87-35.059-49.87-35.059l-274.22-378.47s-0.64-9.838 5.84-22.124c5.53-10.481 16.63-21.188 16.63-21.188s47.35-54.212 139.78-140.72c67.56-63.233 140.94-63.562 140.94-63.562v-43.157l-133.5 0.063s-25.34 49.798-133.44 147.03c-97.2 87.432-155.63 102.67-166.72 104.91-0.28-14.007-0.35-28.124-0.22-42.312 2.36-252.77 49.63-365.03 49.63-365.03l-33.28-38.688-217.54-0.093z" fill="#fff"/>
    </g>
    <g vectornator:layerName="‚">
        <path d="m1473.3 42.594s-14.93 25.675-33.09 42.594c-18.16 16.918-39.5 25.094-39.5 25.094l0.13 19.438s23.71 41.672 36.56 105.62c12.84 63.953 14.62 151.69 14.62 151.69s4.95 1.529 8.26 5.255c3.31 3.727 4.99 9.652 4.99 9.652l13.75-0.063s0.68-5.619 3.63-9.731c2.96-4.112 9.15-5.519 9.15-5.519s2.25-87.138 15.47-151.59 37.63-104.94 37.63-104.94v-19.813s-22.3-7.769-40.19-24.687c-17.89-16.918-31.41-43-31.41-43zm-0.27 34.991s8.18 13.282 18.49 23.915c10.32 10.633 22.77 18.618 22.77 18.618s-6.14 6.976-10.77 16.726c-4.62 9.75-8.12 21.218-8.12 21.218s-6.54-9.367-19.91-15.843c-5.23-2.535-14.97-9.933-14.72-22.594 0.18-8.987 7.22-15.674 13.22-15.25 7.77 0.55 10.71 4.576 10.5 11.344-0.28 9.359-14.34 15.875-14.34 15.875s1.26 1.958 3.11 3.395 4.26 2.355 4.26 2.355 11.5-11.208 11.5-22.719c0-7.308-6.48-15.979-16.9-16.25-10.05-0.2609-21.8 11.111-21.66 23.969 0.14 13.727 6.99 18.675 15.97 28 6.64 6.889 19.91 15.97 18.15 38.031-1.84 23.184-10.54 56.051-10.54 56.051s-3.72-17.214-7.89-35.457c-1.6-7.01-4.83-17.698-5.23-26.811-0.53-12.269 4.7-24.47 4.7-24.47s-2.18-2.753-4.36-4.856c-2.19-2.103-4.37-3.556-4.37-3.556l-6.27 9.13s-3.92-11.223-8.54-21.218c-4.61-9.996-10.3-17.07-10.3-17.07s10.46-8.429 20.77-19.062c10.31-10.633 20.48-23.471 20.48-23.471z" fill="#fff"/>
    </g>
    <g fill="#fff" vectornator:layerName="I">
        <path d="m1021.8 308.88 216.42-0.107 37.82 40.652s-42.78 148.23-42.57 299.47c0.25 171.66 46.86 305.46 46.86 305.46l-146.03 0.015s-22.05-1.559-36.94 14.906c-16.9 18.697-6.94 41.87-6.94 41.87s-27.41-36.356-2.11-76.793c16.2-25.891 34.05-26.042 57.32-42.608 19.3-13.739 17.22-42.717 17.22-42.717l0.24-450.58s0.47-14.989-7.11-26.325c-6.81-10.169-19.47-14.766-19.47-14.766l-114.71-48.484z"/>
        <path d="m1192.8 48s-28.62 23.301-29.5 62.219c-0.51 22.524 10.75 37.473 21.75 37.625 11.52 0.159 15.87-6.894 15.85-12.906-0.01-2.143-0.72-5.112-3.16-5.063-1.84 0.037-2.91 1.562-3.34 2.44-0.42 0.879-0.75 1.524-2.16 1.851-0.7 0.165-1.58-0.515-1.5-2.135 0.1-2.14 2.26-4.756 6.13-4.687 5.7 0.102 9.58 6.013 9.28 13.656-0.4 9.93-3.73 19.469-22.07 19.469-37.1 0-30.87-64.375-30.87-64.375s-22.48 11.93-22.72 35.468c-0.21 20.388 12.34 31.876 12.34 31.876l53.04 54.031s28.68-23.18 29.71-62.094c0.6-22.522-10.59-37.524-21.59-37.719-11.52-0.204-15.91 6.832-15.91 12.844 0 2.293 1.01 5.305 3.35 5.312 2.55 8e-3 3.14-2.011 3.56-2.715 0.38-0.623 0.43-1.33 1.88-1.753 0.65-0.192 1.44 0.357 1.37 2.062-0.09 2.141-2.22 4.773-6.09 4.719-5.71-0.08-9.59-5.981-9.32-13.625 0.36-9.931 3.6-19.46 21.94-19.531 37.11-0.144 31.16 64.25 31.16 64.25s22.44-12.023 22.59-35.563c0.13-20.388-12.5-31.844-12.5-31.844l-53.22-53.812z"/>
    </g>
    <g vectornator:layerName="R">
        <path d="m482.41 77.062c-44.49 0.3326-74.625 33.844-74.625 33.844s2.797-31.167-24.343-30.375c-10.487 0.3063-13.887 6.8467-14.032 12.219-0.171 6.3485 5.625 8.969 5.625 8.969s-2.506-5.9791-1.406-9.0628c1.384-3.8803 3.415-5.7049 7.969-5.6562 6.116 0.0654 11.886 5.4846 11.812 17.438-0.086 13.969-3.75 24.093-3.75 24.093l38.813-0.156s18.758-36.19 61.25-34.875c56.752 1.757 73.031 46.283 73.031 82.156 0 40.498-23.612 57.406-39.719 57.406-6.332 0-11.947-2.081-12.062-7.718-0.093-4.522 4.125-8.75 4.125-8.75s-7.894 2.766-8.032 9.094c-0.114 5.292 2.621 12.903 15.688 12.937 22.372 0.059 49.263-30.001 51.562-61.937 4.981-69.18-55.901-99.895-91.906-99.626zm158.81 46.406c-6.937-0.124-13.629 0.014-20.031 0.406-18.222 1.115-33.849 2.26-50.126 3.406 3.276 7.152 6.81 16.735 8.126 27.407 1.196 9.704 0.677 19.71-0.157 28.187 7.098-0.635 14.383-1.101 22.125-1.156 99.126-0.705 180.64 46.501 180.47 175.38-0.191 141.51-84.366 207.65-154.84 207.09-50.911-0.4-77.878-30.895-77.5-62.282 0.299-24.811 14.436-36.412 26.313-36.187 15.525 0.293 18.205 8.982 17.906 16.156-0.685 16.438-23.594 20.625-23.594 20.625s38.563 7.217 38.563-23.625c0-19.729-10.458-31.097-31.813-30.937-32.156 0.239-59.671 23.955-60.687 64.5-1.396 55.662 44.718 101.12 44.719 101.12l308.69 346.56s55.192 57.515 72.063 98.345c16.349 39.57 9.781 70.69 9.781 70.69l26.906 24.43s20.728-32.79 57.685-56c36.96-23.2 65.51-23.44 88.38-36.4 28.34-16.07 36.4-32.51 36.87-51.97 0.31-12.554-7.21-29.192-24.5-29.376-31.21-0.333-25.37 32.126-25.37 32.126s-0.76-16.522 14.72-16.782c7.15-0.121 9.98 4.05 9.81 10.472-0.28 10.04-10.47 26.29-51.72 27.56-70.39 2.16-104-47.047-147.97-107.34-85.752-117.59-234.12-320.22-234.12-320.22s194.16-52.318 197.5-248.25c2.91-170.61-154.14-232.08-258.19-233.94zm-95.25 5.531c-0.799 0.058-1.832 0.13-2.625 0.188-47.11 3.431-84.063 6.275-108.59 6.437-22.131 0.146-125.78-0.188-125.78-0.187 0 0-84.687-4.708-84.407 76.5 0.13 37.354 32.829 71.562 65.5 71.062 32.672-0.5 50.626-18 50.626-18s0.447-13.287-0.876-24.875c-1.322-11.588-4.406-21.469-4.406-21.469s-21.129 17.716-36.031 18.5c-15.836 0.834-23.48-11.693-22.813-23.844 0.834-15.169 17.241-24.563 33.157-24.5 41.673 0.167 37.75 67.688 37.75 67.688l-0.188 587.03s1.26 50.14-38.562 79.313c-42.052 30.806-94.625 5.562-94.625 5.562s10.306 12.234 27.656 19.969c15.413 6.872 43.75 6.031 43.75 6.031l161.66-0.187s-37.144-169.57-32.062-377.66c4.575-187.32-6.536-361.07 140.75-390.41 0.894-5.055 1.648-11.22 1.5-19.5-0.26-14.541-6.85-29.119-11.375-37.656zm-164.06 30.406 35.969 0.094s-5.308 23.008-16.156 40.031c-11.089 17.4-28.313 31.375-28.313 31.375s-0.974-12.175-4.531-21.125-8.781-16.531-8.781-16.531 8.329-8.48 13.781-16.938c5.452-8.457 8.031-16.906 8.031-16.906zm63.125 14.032c7.091-0.027 12.215 5.551 12.313 15.062 0.291 28.302-69.47 47.049-70.188 104.38-0.067 5.384 0.437 10.013 1.188 14.344-0.645 0.867-2.818 3.723-5.282 7.593-2.038 3.203-2.929 4.971-3.781 6.532-3.442-8.316-5.938-17.759-5.25-30.282 3.493-63.581 76.632-71.937 77.75-101.47 0.293-7.722-2.413-11.758-7.125-11.844-4.508-0.082-7.749 1.283-7.625 5.219 0.185 5.824 2.656 6.468 2.657 6.469 0 0-5.455-0.523-5.219-7.063 0.124-3.46 1.597-8.904 10.562-8.937zm-33.625 118.94c4.482 0.073 7.295 4.033 7.219 8.125-0.212 11.402-12.969 6.531-12.969 6.531s9.375 1.956 9.563-5.343c0.105-4.118-1.951-5.19-4.313-5.282-8.467-0.329-16.809 13.475-22.869 25.258-0.922 1.792-1.791 3.538-2.599 5.18-6.503 13.204-11.924 41.626-2.626 71.937 0.65 2.117 1.442 3.978 2.188 5.907l-2.031 2.968c-1.184-2.307-2.37-4.644-3.469-7.281-11.166-26.8-11.011-55.308 3.281-79.281 12.698-21.299 18.582-28.882 28.625-28.719zm-19.344 28.437c5.809 15.579 14.621 26.873 14.126 48.657-0.874 38.351-30.789 52.651-30.563 72.5 0.088 7.749 3.691 9.329 6.781 9.593 3.521 0.302 7.2-3.465 7.282-7.468 0.088-4.315-4.844-7.938-4.844-7.938s8.218 1.143 8.218 8.188c0 5.117-4.58 12.23-10.656 12.406s-13.221-1.397-13.031-14.594c0.378-26.256 24.23-24.858 26.437-72.468 0.682-14.708-4.835-24.86-10.5-35.594 0.259-0.627 2.188-5.296 4.063-8.938 1.449-2.814 2.092-3.522 2.687-4.344zm-1.437 95.876c7.642 13.228 16.094 19.5 16.094 19.5s-8.468-5.11-17.281-17.719l1.187-1.781z" fill="#fff"/>
    </g>
</svg>
