<svg xmlns="http://www.w3.org/2000/svg" width="100%" height="100%" viewBox="0 0 200 110" preserveAspectRatio="xMinYMid"><path fill="#FFF" d="M129.868 35.069c-15.476-.273-16.969 15.53-16.969 15.531 0 0 4.733-6.647 11.219-6.875 6.42-.226 9.57 2.62 9.656 7.438.125 7.008-4.676 10.263-12.625 10.25-6.853-.012-12.982-4.5-19.366-9.291-7.193-5.398-14.708-11.178-23.946-11.366-24.377-.494-34.532 14.75-34.532 14.75s11.925-8.49 26.063-8.625c24.741-.235 32.311 24.191 52.031 23.938 17.349-.223 23.263-10.683 23.469-19.157.214-8.809-7.352-16.459-15-16.593zm-27.501 31.266s-16.989 12.267-48.454-.95c-14.503-6.092-28.546-17.8-28.546-17.8S48.909 76.721 75.93 77.397c21.974.55 26.437-11.063 26.437-11.063M0 30c20 0 62.645.932 90.803-2.927C125.317 22.343 140.126 10 140.126 10s9.044 17.455 24.044 29.955S200.126 60 200.126 60s-31.006 5.536-53.015 18.88C124.149 92.803 110.126 110 110.126 110S89.633 94.866 62.044 87.702C37.609 81.357 20 80 0 80V30z"/></svg>