<svg xmlns="http://www.w3.org/2000/svg" width="100%" height="100%" viewBox="0 0 200 110" preserveAspectRatio="xMaxYMid">
    <g id="hr-head-left">
        <path fill="#FFFFFF" d="M70.2584+35.0688C85.7347+34.7964+87.2271+50.5999+87.2271+50.6C87.2271+50.6+82.4939+43.9531+76.0084+43.725C69.5882+43.4992+66.438+46.3453+66.3521+51.1625C66.2273+58.1711+71.0286+61.4255+78.9771+61.4125C85.8305+61.4013+91.9597+56.9121+98.3432+52.1217C105.536+46.7239+113.051+40.9436+122.29+40.7563C146.666+40.2623+156.821+55.5063+156.821+55.5063C156.821+55.5063+144.896+47.0162+130.758+46.8813C106.017+46.6457+98.4469+71.0721+78.7271+70.8188C61.3779+70.596+55.4643+60.1357+55.2584+51.6625C55.0443+42.8533+62.6104+35.2035+70.2584+35.0688ZM97.7594+66.3345C97.7594+66.3345+114.748+78.6023+146.214+65.3847C160.716+59.2928+174.759+47.5845+174.759+47.5845C174.759+47.5846+151.217+76.7215+124.197+77.397C102.222+77.9465+97.7594+66.3345+97.7594+66.3345M200+30C180+30+137.482+30.9323+109.323+27.0732C74.8092+22.3431+60+10+60+10C60+9.99994+50.9562+27.455+35.9562+39.955C20.9562+52.455+0+60+0+60C0+59.9999+31.0059+65.5364+53.0156+78.8808C75.9772+92.8024+90+110+90+110C90+110+110.493+94.8664+138.083+87.7023C162.517+81.3574+180+80+200+80L200+30Z" opacity="1"/>
    </g>
</svg>
