<svg xmlns="http://www.w3.org/2000/svg" width="100%" height="100%" viewBox="0 0 200 110" preserveAspectRatio="xMinYMid" >
    <g id="hr-head-right"><path fill="#FFFFFF" d="M129.868+35.0688C114.392+34.7964+112.899+50.5999+112.899+50.6C112.899+50.6+117.632+43.9531+124.118+43.725C130.538+43.4992+133.688+46.3453+133.774+51.1625C133.899+58.1711+129.098+61.4255+121.149+61.4125C114.296+61.4013+108.167+56.9121+101.783+52.1217C94.5904+46.7239+87.0748+40.9436+77.8367+40.7563C53.4604+40.2623+43.3054+55.5063+43.3055+55.5063C43.3055+55.5063+55.2301+47.0162+69.368+46.8813C94.1094+46.6457+101.679+71.0721+121.399+70.8188C138.748+70.596+144.662+60.1357+144.868+51.6625C145.082+42.8533+137.516+35.2035+129.868+35.0688ZM102.367+66.3345C102.367+66.3345+85.3785+78.6023+53.9126+65.3847C39.4104+59.2928+25.3669+47.5845+25.3669+47.5845C25.3669+47.5846+48.9093+76.7215+75.9295+77.397C97.9038+77.9465+102.367+66.3345+102.367+66.3345M0+30C20+30+62.6446+30.9323+90.8032+27.0732C125.317+22.3431+140.126+10+140.126+10C140.126+9.99994+149.17+27.455+164.17+39.955C179.17+52.455+200.126+60+200.126+60C200.126+59.9999+169.12+65.5364+147.111+78.8808C124.149+92.8024+110.126+110+110.126+110C110.126+110+89.6331+94.8664+62.0437+87.7023C37.6091+81.3574+20+80+0+80L0+30Z" opacity="1"/></g>
</svg>
