<svg xmlns="http://www.w3.org/2000/svg" width="100%" height="100%" viewBox="0 0 200 110" preserveAspectRatio="xMaxYMid"><path fill="#FFF" d="M70.258 35.069c15.477-.273 16.97 15.53 16.97 15.531 0 0-4.734-6.647-11.22-6.875-6.42-.226-9.57 2.62-9.656 7.438-.125 7.008 4.677 10.263 12.625 10.25 6.853-.012 12.983-4.5 19.366-9.291 7.193-5.398 14.708-11.178 23.947-11.366 24.376-.494 34.531 14.75 34.531 14.75s-11.925-8.49-26.063-8.625c-24.741-.235-32.311 24.191-52.03 23.938-17.35-.223-23.264-10.683-23.47-19.157-.214-8.809 7.352-16.459 15-16.593zM97.76 66.335s16.989 12.267 48.455-.95c14.502-6.092 28.545-17.8 28.545-17.8s-23.542 29.137-50.562 29.812c-21.975.55-26.438-11.063-26.438-11.063M200 30c-20 0-62.518.932-90.677-2.927C74.809 22.343 60 10 60 10s-9.044 17.455-24.044 29.955S0 60 0 60s31.006 5.536 53.016 18.88C75.977 92.803 90 110 90 110s20.493-15.134 48.083-22.298C162.517 81.357 180 80 200 80V30z"/></svg>