<?xml version="1.0" encoding="UTF-8" standalone="no"?>
<!DOCTYPE svg PUBLIC "-//W3C//DTD SVG 1.1//EN" "http://www.w3.org/Graphics/SVG/1.1/DTD/svg11.dtd">
<svg xmlns="http://www.w3.org/2000/svg" xmlns:xlink="http://www.w3.org/1999/xlink" width="100%" height="100%" version="1.1" viewBox="0 300 430 130" xml:space="preserve" preserveAspectRatio="none">
    <defs/>
    <g id="head-left">
        <path fill="#FFFFFF" d="M70+0C22.9159+0+0+65.4019+0+100C0+150+0+340+0+340C0+360+10+430+80+430C117.355+430+143.754+398.085+147.062+362.625C149.776+333.535+160.781+311.406+160.781+311.406C160.781+311.406+142.075+311.251+119.781+311.438C100.604+311.598+88.0312+317+88.0312+317C88.0312+317+101.725+333.713+102.25+354.781C102.657+371.115+90.5565+378.261+78.4062+377.594C63.2372+376.76+53.8426+360.353+53.9062+344.438C54.0729+302.764+100+300+120+300C120+300+229.306+300+318.344+300C321.348+294.568+327.344+281.565+327.438+264.25C327.541+245.037+320.953+231.825+320+230C258.398+230+170.033+229.425+134.344+215.844C69.1549+191.036+33.2623+134.756+32.3125+85.9375C31.4085+39.4726+52.5527+22.5287+70.3438+22.4375C85.1637+22.3615+91.0098+30.7512+90.7812+39.4375C90.5527+48.1238+86.804+55.9427+77.7188+56.4062C69.3047+56.8355+60.9375+51.5938+60.9375+51.5938C60.9375+51.5938+64.4071+63.8405+78.25+63.6562C94.0245+63.4463+103.969+51.8371+103.969+34.5938C103.969+21.0574+95.9995-3.8147e-06+70+0ZM15.5+105.25C20.9007+105.474+27.047+110.798+26.4375+123.25C26.0444+131.281+25.272+135.301+23.875+140.562C23.875+140.562+22.9231+139.965+22.25+139.438C21.5769+138.91+21.125+138.438+21.125+138.438C22.6374+133.468+23.3998+129.39+23.4375+123.25C23.506+112.092+19.1189+107.629+15.3438+107.719C14.8044+107.732+14.2811+107.839+13.7812+108.031C9.81616+109.56+6.19345+117.603+9.875+126.75C13.1747+134.948+19.2192+140.548+33.4688+150.656C45.6205+159.277+59.4883+170.318+61.5625+185.219C62.1165+189.199+62.2876+192.649+62.2812+195.844L60.8438+194.531L58.5625+192.969C58.3271+190.92+58.0054+188.747+57.5312+186.344C54.6921+171.952+45.2584+164.936+32.4062+155.625C21.1123+147.443+8.73217+137.932+6.125+128.438C2.86564+116.567+7.63793+106.769+13.25+105.438C13.9701+105.267+14.7285+105.218+15.5+105.25ZM18.2188+147.812C18.4883+148.016+18.8729+148.31+19.5+148.812C20.1263+149.314+20.8363+149.853+21.0312+150C20.3709+153.656+20.2629+157.392+20.375+162.719C20.7255+179.365+40.3602+188.629+45.7188+189.469C66.0764+193.097+75.5691+217.904+96.5+239.125C96.5+239.125+93.4778+227.348+102.469+221.094C108.466+216.922+116.838+218.955+119.688+223.281C126.901+234.232+114.281+237.094+114.281+237.094C114.281+237.094+122.365+234.141+116.281+227.188C114.038+224.624+109.328+223.953+106.125+227.438C100.368+233.7+105.852+246.866+109.219+249.688C119.074+257.947+131.785+262.794+146.875+263.562C152.252+263.836+156.925+263.522+161.281+262.938C162.123+263.615+164.883+265.89+168.656+268.5C171.778+270.659+173.505+271.621+175.031+272.531C166.589+275.652+157.049+277.762+144.562+276.594C81.1623+270.664+75.6233+197.282+46.1562+195.031C38.4513+194.443+34.329+196.982+34.0625+201.688C33.8076+206.19+35.0311+209.474+38.9688+209.5C44.7961+209.539+45.5312+207.094+45.5312+207.094C45.5312+207.094+44.8079+212.518+38.2812+212.031C34.8282+211.774+29.4409+210.116+29.75+201.156C29.8687+197.714+32.2828+193.511+36.4062+191.531C32.1135+189.299+15.7576+179.405+15.25+162.719C15.0918+157.517+16.5245+153.003+18.2188+147.812ZM252.969+166.406C208.479+166.739+178.344+200.25+178.344+200.25C178.344+200.25+181.14+169.082+154+169.875C143.513+170.181+140.113+176.722+139.969+182.094C139.798+188.442+145.594+191.063+145.594+191.062C145.594+191.063+143.088+185.084+144.188+182C145.571+178.12+147.603+176.295+152.156+176.344C158.272+176.409+164.042+181.828+163.969+193.781C163.883+207.751+163.781+212.937+163.781+212.938C163.781+212.938+169.695+214.412+176.969+215.375C184.243+216.338+192.875+216.812+192.875+216.812C192.875+216.812+217.664+184.997+260.156+186.312C316.908+188.069+333.312+229.127+333.312+265C333.312+305.498+309.7+322.236+293.594+322.406C282.39+322.525+274.563+316.875+274.562+316.875C274.562+316.875+280.558+326.325+293.625+326.375C317.77+326.467+342.576+297.968+344.875+266.031C349.856+196.852+288.973+166.137+252.969+166.406ZM58.5938+203.438C59.0361+203.725+59.0631+203.632+59.5938+204.094C60.3942+204.79+60.6395+205.262+61.25+206.062C59.7778+212.563+56.9597+217.346+53.5625+221.812C55.911+215.596+57.9407+210.325+58.5938+203.438ZM29.3614+229.416C29.3614+229.416+46.4704+228.512+63.5007+239.35C74.5+246.349+84.7481+263.003+90+270C79.9959+259.131+67.9079+255.966+60.926+254.189C53.3311+252.256+35.1033+252.532+24.5312+255.312C24.5312+255.312+24.3731+248.718+25.5806+242.243C26.7882+235.769+29.3614+229.416+29.3614+229.416ZM346.969+230C348.194+233.676+352.009+246.492+351.531+263.469C351.039+280.955+344.513+294.222+341.125+300C379.54+300+409.314+300+430+300L430+230C416.684+230+376.364+230+346.969+230ZM155.719+232.406C167.104+233.056+161.75+245.625+161.75+245.625C161.75+245.625+164.068+236.311+156.781+235.844C152.671+235.58+151.495+237.612+151.312+239.969C150.659+248.417+164.146+257.274+175.688+263.781C177.443+264.771+179.14+265.723+180.75+266.594C193.695+273.598+221.917+280.097+252.562+271.969C254.703+271.401+256.576+270.671+258.531+270L261.438+272.156C259.086+273.251+256.677+274.347+254+275.344C226.791+285.473+198.313+284.233+174.906+269.031C154.111+255.525+146.764+249.342+147.312+239.312C147.557+234.837+151.633+232.173+155.719+232.406ZM216.438+247.406C218.868+247.295+221.438+247.334+224.156+247.5C262.446+249.844+275.594+280.276+295.438+280.812C303.185+281.022+304.898+277.484+305.281+274.406C305.718+270.899+302.091+267.079+298.094+266.844C293.785+266.59+289.969+271.375+289.969+271.375C289.969+271.375+291.429+263.198+298.469+263.469C303.582+263.665+310.526+268.515+310.469+274.594C310.412+280.672+308.555+287.759+295.375+287.062C269.153+285.677+271.46+261.908+223.969+257.875C209.298+256.629+198.944+261.751+188+267C187.384+266.718+182.786+264.607+179.219+262.594C176.462+261.038+175.798+260.345+175+259.719C188.817+255.164+199.427+248.188+216.438+247.406ZM290.844+249.5C290.844+249.5+285.407+257.77+272.469+266.094L270.75+264.844C284.262+257.715+290.844+249.5+290.844+249.5ZM58.4125+261.46C72.2866+263.899+81.921+269.55+90+280C86.7273+280.487+73.1018+279.718+58.1018+282.218C43.1018+284.718+30+290+30+290C30+290+27.3574+283.797+26.0698+277.725C24.7822+271.652+24.8496+265.709+24.8496+265.709C24.8496+265.709+44.6278+259.036+58.4125+261.46Z" opacity="1"/>
    </g>
</svg>
