<svg xmlns="http://www.w3.org/2000/svg" width="100%" height="100%" viewBox="0 0 430 300" preserveAspectRatio="none"><path fill="#FFF" d="M70 0C22.916 0 0 65.402 0 100v240c0 20 10 90 80 90 37.355 0 63.754-31.915 67.062-67.375 2.714-29.09 13.719-51.219 13.719-51.219s-18.706-.155-41 .032c-19.177.16-31.75 5.562-31.75 5.562s13.694 16.713 14.219 37.781c.407 16.334-11.694 23.48-23.844 22.813-15.169-.834-24.563-17.241-24.5-33.156C54.073 302.764 100 300 120 300h198.344c3.004-5.432 9-18.435 9.094-35.75.103-19.213-6.485-32.425-7.438-34.25-61.602 0-149.967-.575-185.656-14.156-65.19-24.808-101.082-81.088-102.031-129.906-.905-46.465 20.24-63.41 38.03-63.5 14.82-.076 20.667 8.313 20.438 17-.228 8.686-3.977 16.505-13.062 16.968-8.414.43-16.781-4.812-16.781-4.812s3.47 12.246 17.312 12.062c15.775-.21 25.719-11.819 25.719-29.062C103.969 21.057 95.999 0 70 0zM15.5 105.25c5.4.224 11.547 5.548 10.938 18-.394 8.031-1.166 12.051-2.563 17.312 0 0-.952-.597-1.625-1.124-.673-.528-1.125-1-1.125-1 1.512-4.97 2.275-9.048 2.313-15.188.068-11.158-4.32-15.621-8.094-15.531-.54.013-1.063.12-1.563.312-3.965 1.529-7.588 9.572-3.906 18.719 3.3 8.198 9.344 13.798 23.594 23.906 12.151 8.621 26.02 19.662 28.093 34.563.555 3.98.726 7.43.72 10.625l-1.438-1.313-2.282-1.562a82.437 82.437 0 0 0-1.03-6.625c-2.84-14.392-12.274-21.408-25.126-30.719-11.294-8.182-23.674-17.693-26.281-27.187-3.26-11.871 1.513-21.669 7.125-23 .72-.171 1.479-.22 2.25-.188zm2.719 42.562c.27.204.654.498 1.281 1A74.442 74.442 0 0 0 21.031 150c-.66 3.656-.768 7.392-.656 12.719.35 16.646 19.985 25.91 25.344 26.75 20.357 3.628 29.85 28.435 50.781 49.656 0 0-3.022-11.777 5.969-18.031 5.997-4.172 14.369-2.139 17.219 2.187 7.213 10.951-5.407 13.813-5.407 13.813s8.084-2.953 2-9.906c-2.243-2.564-6.953-3.235-10.156.25-5.757 6.262-.273 19.428 3.094 22.25 9.855 8.259 22.566 13.106 37.656 13.874 5.377.274 10.05-.04 14.406-.624.842.677 3.602 2.952 7.375 5.562 3.122 2.159 4.849 3.121 6.375 4.031-8.442 3.121-17.982 5.231-30.469 4.063-63.4-5.93-68.939-79.312-98.406-81.563-7.705-.588-11.827 1.951-12.093 6.657-.255 4.502.968 7.786 4.906 7.812 5.827.039 6.562-2.406 6.562-2.406s-.723 5.424-7.25 4.937c-3.453-.257-8.84-1.915-8.531-10.875.119-3.442 2.533-7.645 6.656-9.625-4.292-2.232-20.648-12.126-21.156-28.812-.158-5.202 1.274-9.716 2.969-14.907zm234.75 18.594c-44.49.333-74.625 33.844-74.625 33.844s2.796-31.168-24.344-30.375c-10.487.306-13.887 6.847-14.031 12.219-.171 6.348 5.625 8.969 5.625 8.968 0 .001-2.506-5.978-1.406-9.062 1.383-3.88 3.415-5.705 7.968-5.656 6.116.065 11.886 5.484 11.813 17.437-.086 13.97-.188 19.156-.188 19.157 0 0 5.914 1.474 13.188 2.437 7.274.963 15.906 1.437 15.906 1.437s24.789-31.815 67.281-30.5c56.752 1.757 73.156 42.815 73.156 78.688 0 40.498-23.612 57.236-39.718 57.406-11.204.119-19.031-5.531-19.032-5.531 0 0 5.996 9.45 19.063 9.5 24.145.092 48.951-28.407 51.25-60.344 4.981-69.179-55.902-99.894-91.906-99.625zM58.594 203.438c.442.287.47.194 1 .656.8.696 1.045 1.168 1.656 1.968-1.472 6.501-4.29 11.284-7.688 15.75 2.349-6.216 4.379-11.487 5.032-18.374zM29.36 229.416s17.11-.904 34.14 9.934C74.5 246.349 84.748 263.003 90 270c-10.004-10.869-22.092-14.034-29.074-15.811-7.595-1.933-25.823-1.657-36.395 1.123 0 0-.158-6.594 1.05-13.069 1.207-6.474 3.78-12.827 3.78-12.827zM346.97 230c1.225 3.676 5.04 16.492 4.562 33.469-.492 17.486-7.018 30.753-10.406 36.531H430v-70h-83.031zm-191.25 2.406c11.385.65 6.031 13.219 6.031 13.219s2.318-9.314-4.969-9.781c-4.11-.264-5.286 1.768-5.469 4.125-.653 8.448 12.834 17.305 24.376 23.812 1.755.99 3.452 1.942 5.062 2.813 12.945 7.004 41.167 13.503 71.812 5.375 2.141-.568 4.014-1.298 5.969-1.969l2.907 2.156c-2.352 1.095-4.761 2.191-7.438 3.188-27.209 10.129-55.687 8.889-79.094-6.313-20.795-13.506-28.142-19.689-27.594-29.719.245-4.475 4.321-7.139 8.407-6.906zm60.719 15c2.43-.111 5-.072 7.718.094 38.29 2.344 51.438 32.776 71.282 33.312 7.747.21 9.46-3.328 9.843-6.406.437-3.507-3.19-7.327-7.187-7.562-4.309-.254-8.125 4.531-8.125 4.531s1.46-8.177 8.5-7.906c5.113.196 12.057 5.046 12 11.125-.057 6.078-1.914 13.165-15.094 12.468-26.222-1.385-23.915-25.154-71.406-29.187-14.671-1.246-25.025 3.876-35.969 9.125-.616-.282-5.214-2.393-8.781-4.406-2.757-1.556-3.421-2.249-4.219-2.875 13.817-4.555 24.427-11.531 41.438-12.313zm74.406 2.094s-5.437 8.27-18.375 16.594l-1.719-1.25c13.512-7.129 20.094-15.344 20.094-15.344zM58.413 261.46C72.286 263.899 81.92 269.55 90 280c-3.273.487-16.898-.282-31.898 2.218S30 290 30 290s-2.643-6.203-3.93-12.275c-1.288-6.073-1.22-12.016-1.22-12.016s19.778-6.673 33.563-4.249z"/></svg>