<svg xmlns="http://www.w3.org/2000/svg" width="100%" height="100%" viewBox="0 0 430 430"><g fill="#fff"><path d="M-10 230h528.547v70H-10v-70zM54.175 3.634s-8.306 8.833-23.437 14.41C15.606 23.622.468 29.188.468 29.188S6.063 44.514 11.57 59.833c5.51 15.32 4.08 27.38 4.08 27.38l13.76 6.532s37.423.633 78.471 11.528 85.778 31.99 85.778 31.99 3.108-3.929 8.445-1.441c5.338 2.488 12.905 11.393 12.905 11.393s7.639-8.929 13-11.393c5.361-2.464 8.445 1.537 8.445 1.537s44.734-21.175 85.778-32.086c41.044-10.911 78.472-11.528 78.472-11.528l13.759-6.533s-1.423-12.057 4.08-27.379l11.007-30.645-30.269-11.144c-15.134-5.571-23.343-14.41-23.343-14.41l-13.758 6.533s-24.587 28.477-59.21 53.317c-34.623 24.84-79.326 46.016-79.326 46.016s-1.633 4.223-4.27 7.589c-1.806 2.306-6.792 2.35-8.635 0-2.638-3.365-4.27-7.685-4.27-7.685s-44.788-21.094-79.421-45.92C92.415 38.658 67.934 10.167 67.934 10.167l-13.76-6.533zm1.328 21.807S63.11 33.81 68.218 39.18c5.11 5.37 10.058 10.76 10.058 10.76L70.78 51.09s.348 1.777 1.044 3.747c.696 1.97 1.803 4.13 1.803 4.13s9.076.364 16.605 4.324c5.592 2.94 11.344 8.081 15.277 11.144a2038.453 2038.453 0 0 0 20.021 15.37s-23.101-4.282-38.145-9.99c-14.315-5.433-16.173-16.34-18.597-22.48-3.282-8.311-4.445-14.01-13-18.157-8.013-3.884-18.463.052-21.16 6.34-2.798 6.524.737 13.019 5.314 15.179 7.208 3.402 17.554-.384 17.554-.384s.089-1.699-.285-3.267c-.373-1.568-1.233-2.978-1.233-2.978s-8.103 6.82-14.044 4.227c-4.295-1.874-5.947-4.929-4.08-9.895 1.442-3.833 7.606-6.196 13.285-3.65 8 3.587 9.865 11.77 9.963 15.755.25 10.18 4.27 17.004 4.27 17.004s-8.308-.701-15.657-1.25c-7.349-.547-15.94-.96-15.94-.96s-2.11-10.36-5.22-19.213c-3.109-8.854-7.211-16.14-7.211-16.14s8.432-1.192 16.985-4.803c8.552-3.61 17.174-9.703 17.174-9.703zm319.012 0s8.621 6.096 17.175 9.703c8.553 3.608 17.079 4.708 17.079 4.708s-4.201 7.38-7.306 16.235c-3.105 8.855-5.124 19.213-5.124 19.213s-8.687.41-16.036.96a1826.84 1826.84 0 0 0-15.561 1.25s4.024-6.825 4.269-17.004c.097-3.984 1.965-12.165 9.964-15.755 5.677-2.548 11.841-.182 13.284 3.65 1.869 4.965.215 8.02-4.08 9.895-5.94 2.595-14.044-4.227-14.044-4.227s-.86 1.41-1.233 2.978c-.373 1.569-.285 3.267-.285 3.267s10.253 3.789 17.459.384c4.576-2.162 8.209-8.752 5.409-15.275-2.699-6.287-13.149-10.131-21.16-6.244-8.553 4.15-9.721 9.844-12.999 18.157-2.422 6.141-4.38 17.041-18.693 22.48-15.042 5.714-38.05 10.086-38.05 10.086s9.693-7.396 19.926-15.37c3.932-3.064 9.686-8.297 15.277-11.24 7.528-3.963 16.7-4.323 16.7-4.323s1.108-2.16 1.803-4.131c.695-1.97.949-3.747.949-3.747l-7.496-1.153s5.045-5.388 10.153-10.759c5.107-5.371 12.62-13.738 12.62-13.738z"/></g></svg>