<?xml version="1.0" encoding="UTF-8" standalone="no"?>
<!DOCTYPE svg PUBLIC "-//W3C//DTD SVG 1.1//EN" "http://www.w3.org/Graphics/SVG/1.1/DTD/svg11.dtd">
<svg xmlns="http://www.w3.org/2000/svg" xmlns:xlink="http://www.w3.org/1999/xlink" width="100%" height="100%" version="1.1" viewBox="0 0 430 430" xml:space="preserve" preserveAspectRatio="none">
    <defs/>
    <g id="head-right" >
        <path fill="#FFFFFF" d="M360+0C407.084+0+430+65.4019+430+100C430+150+430+340+430+340C430+360+420+430+350+430C312.645+430+286.246+398.085+282.938+362.625C280.224+333.535+269.219+311.406+269.219+311.406C269.219+311.406+287.925+311.251+310.219+311.438C329.396+311.598+341.969+317+341.969+317C341.969+317+328.275+333.713+327.75+354.781C327.343+371.115+339.444+378.261+351.594+377.594C366.763+376.76+376.157+360.353+376.094+344.438C375.927+302.764+330+300+310+300C310+300+200.694+300+111.656+300C108.652+294.568+102.656+281.565+102.562+264.25C102.459+245.037+109.047+231.825+110+230C171.602+230+259.967+229.425+295.656+215.844C360.845+191.036+396.738+134.756+397.688+85.9375C398.591+39.4726+377.447+22.5287+359.656+22.4375C344.836+22.3615+338.99+30.7512+339.219+39.4375C339.447+48.1238+343.196+55.9427+352.281+56.4062C360.695+56.8355+369.062+51.5938+369.062+51.5938C369.062+51.5938+365.593+63.8405+351.75+63.6562C335.975+63.4463+326.031+51.8371+326.031+34.5938C326.031+21.0574+334-3.8147e-06+360+0ZM414.5+105.25C409.099+105.474+402.953+110.798+403.562+123.25C403.956+131.281+404.728+135.301+406.125+140.562C406.125+140.562+407.077+139.965+407.75+139.438C408.423+138.91+408.875+138.438+408.875+138.438C407.363+133.468+406.6+129.39+406.562+123.25C406.494+112.092+410.881+107.629+414.656+107.719C415.196+107.732+415.719+107.839+416.219+108.031C420.184+109.56+423.807+117.603+420.125+126.75C416.825+134.948+410.781+140.548+396.531+150.656C384.379+159.277+370.512+170.318+368.438+185.219C367.883+189.199+367.712+192.649+367.719+195.844L369.156+194.531L371.438+192.969C371.673+190.92+371.995+188.747+372.469+186.344C375.308+171.952+384.742+164.936+397.594+155.625C408.888+147.443+421.268+137.932+423.875+128.438C427.134+116.567+422.362+106.769+416.75+105.438C416.03+105.267+415.272+105.218+414.5+105.25ZM411.781+147.812C411.512+148.016+411.127+148.31+410.5+148.812C409.874+149.314+409.164+149.853+408.969+150C409.629+153.656+409.737+157.392+409.625+162.719C409.275+179.365+389.64+188.629+384.281+189.469C363.924+193.097+354.431+217.904+333.5+239.125C333.5+239.125+336.522+227.348+327.531+221.094C321.534+216.922+313.162+218.955+310.312+223.281C303.099+234.232+315.719+237.094+315.719+237.094C315.719+237.094+307.635+234.141+313.719+227.188C315.962+224.624+320.672+223.953+323.875+227.438C329.632+233.7+324.148+246.866+320.781+249.688C310.926+257.947+298.215+262.794+283.125+263.562C277.748+263.836+273.075+263.522+268.719+262.938C267.877+263.615+265.117+265.89+261.344+268.5C258.222+270.659+256.495+271.621+254.969+272.531C263.411+275.652+272.951+277.762+285.438+276.594C348.838+270.664+354.377+197.282+383.844+195.031C391.549+194.443+395.671+196.982+395.938+201.688C396.192+206.19+394.969+209.474+391.031+209.5C385.204+209.539+384.469+207.094+384.469+207.094C384.469+207.094+385.192+212.518+391.719+212.031C395.172+211.774+400.559+210.116+400.25+201.156C400.131+197.714+397.717+193.511+393.594+191.531C397.886+189.299+414.242+179.405+414.75+162.719C414.908+157.517+413.476+153.003+411.781+147.812ZM177.031+166.406C221.521+166.739+251.656+200.25+251.656+200.25C251.656+200.25+248.86+169.082+276+169.875C286.487+170.181+289.887+176.722+290.031+182.094C290.202+188.442+284.406+191.063+284.406+191.062C284.406+191.063+286.912+185.084+285.812+182C284.429+178.12+282.397+176.295+277.844+176.344C271.728+176.409+265.958+181.828+266.031+193.781C266.117+207.751+266.219+212.937+266.219+212.938C266.219+212.938+260.305+214.412+253.031+215.375C245.757+216.338+237.125+216.812+237.125+216.812C237.125+216.812+212.336+184.997+169.844+186.312C113.092+188.069+96.6875+229.127+96.6875+265C96.6876+305.498+120.3+322.236+136.406+322.406C147.61+322.525+155.437+316.875+155.438+316.875C155.438+316.875+149.442+326.325+136.375+326.375C112.23+326.467+87.4243+297.968+85.125+266.031C80.1442+196.852+141.027+166.137+177.031+166.406ZM371.406+203.438C370.964+203.725+370.937+203.632+370.406+204.094C369.606+204.79+369.36+205.262+368.75+206.062C370.222+212.563+373.04+217.346+376.438+221.812C374.089+215.596+372.059+210.325+371.406+203.438ZM400.639+229.416C400.639+229.416+383.53+228.512+366.499+239.35C355.5+246.349+345.252+263.003+340+270C350.004+259.131+362.092+255.966+369.074+254.189C376.669+252.256+394.897+252.532+405.469+255.312C405.469+255.312+405.627+248.718+404.419+242.243C403.212+235.769+400.639+229.416+400.639+229.416ZM83.0312+230C81.8064+233.676+77.9906+246.492+78.4688+263.469C78.9613+280.955+85.4866+294.222+88.875+300C50.4605+300+20.6862+300+0+300L0+230C13.3159+230+53.6356+230+83.0312+230ZM274.281+232.406C262.896+233.056+268.25+245.625+268.25+245.625C268.25+245.625+265.932+236.311+273.219+235.844C277.329+235.58+278.505+237.612+278.688+239.969C279.341+248.417+265.854+257.274+254.312+263.781C252.557+264.771+250.86+265.723+249.25+266.594C236.305+273.598+208.083+280.097+177.438+271.969C175.297+271.401+173.424+270.671+171.469+270L168.562+272.156C170.914+273.251+173.323+274.347+176+275.344C203.209+285.473+231.687+284.233+255.094+269.031C275.889+255.525+283.236+249.342+282.688+239.312C282.443+234.837+278.367+232.173+274.281+232.406ZM213.562+247.406C211.132+247.295+208.562+247.334+205.844+247.5C167.554+249.844+154.406+280.276+134.562+280.812C126.815+281.022+125.102+277.484+124.719+274.406C124.282+270.899+127.909+267.079+131.906+266.844C136.215+266.59+140.031+271.375+140.031+271.375C140.031+271.375+138.571+263.198+131.531+263.469C126.418+263.665+119.474+268.515+119.531+274.594C119.588+280.672+121.445+287.759+134.625+287.062C160.847+285.677+158.54+261.908+206.031+257.875C220.702+256.629+231.056+261.751+242+267C242.616+266.718+247.214+264.607+250.781+262.594C253.538+261.038+254.202+260.345+255+259.719C241.183+255.164+230.573+248.188+213.562+247.406ZM139.156+249.5C139.156+249.5+144.593+257.77+157.531+266.094L159.25+264.844C145.738+257.715+139.156+249.5+139.156+249.5ZM371.587+261.46C357.713+263.899+348.079+269.55+340+280C343.273+280.487+356.898+279.718+371.898+282.218C386.898+284.718+400+290+400+290C400+290+402.643+283.797+403.93+277.725C405.218+271.652+405.15+265.709+405.15+265.709C405.15+265.709+385.372+259.036+371.587+261.46Z" opacity="1"/>
    </g>
</svg>
